<svg width="250" height="250" viewBox="0 0 250 250" fill="none" xmlns="http://www.w3.org/2000/svg">
<g clip-path="url(#clip0_1796_434)">
<path d="M56.151 201.677L42 28.3254L211 28.6738L196.037 201.677L127.138 221.675L56.151 201.677Z" fill="#1B73BA"/>
<path d="M127.138 204.933V44.8352L196.733 45.0674L184.323 188.307L127.138 204.933Z" fill="#1C88C7"/>
<path d="M179.45 65.2986H72.3901L75.2904 86.225H126.094L76.1027 107.735L79.0016 127.965H152.657L149.988 156.216L125.05 161.1L102.433 155.287L100.692 139.242H79.9297L82.7128 172.611L127.254 185.051L169.94 171.449L175.392 106.223H130.269L179.449 85.7606L179.45 65.2986Z" fill="white"/>
</g>
<defs>
<clipPath id="clip0_1796_434">
<rect width="169" height="194" fill="white" transform="translate(42 28)"/>
</clipPath>
</defs>
</svg>
