<svg width="250" height="250" viewBox="0 0 250 250" fill="none" xmlns="http://www.w3.org/2000/svg">
<path d="M235.504 105.356C234.879 104.841 229.251 100.623 217.163 100.623C214.036 100.623 210.806 100.932 207.68 101.446C205.387 85.7043 192.152 78.0906 191.631 77.6792L188.4 75.8269L186.316 78.8109C183.711 82.8236 181.731 87.3507 180.585 91.9808C178.396 100.932 179.751 109.369 184.336 116.571C178.813 119.658 169.851 120.378 167.975 120.48H19.9956C16.14 120.48 13.0136 123.567 13.0136 127.374C12.8054 140.132 14.9936 152.89 19.4749 164.928C24.581 178.098 32.1886 187.872 41.9845 193.84C53.0307 200.528 71.0591 204.334 91.3801 204.334C100.551 204.334 109.721 203.512 118.788 201.865C131.397 199.601 143.485 195.28 154.636 189.004C163.774 183.774 172.008 177.103 179.021 169.25C190.797 156.183 197.779 141.573 202.885 128.609H204.969C217.788 128.609 225.708 123.567 230.084 119.246C233.002 116.571 235.19 113.279 236.754 109.575L237.692 106.9L235.504 105.356Z" fill="#0091E2"/>
<path d="M33.752 116.262H53.5519C54.49 116.262 55.3238 115.542 55.3238 114.513V97.0223C55.3238 96.0962 54.5941 95.2733 53.5519 95.2733H33.752C32.8142 95.2733 31.9805 95.9932 31.9805 97.0223V114.513C32.0845 115.542 32.8142 116.262 33.752 116.262V116.262ZM61.0551 116.262H80.8553C81.7931 116.262 82.6268 115.542 82.6268 114.513V97.0223C82.6268 96.0962 81.8972 95.2733 80.8553 95.2733H61.0547C60.1169 95.2733 59.2831 95.9932 59.2831 97.0223V114.513C59.3876 115.542 60.1173 116.262 61.0547 116.262M88.8789 116.262H108.679C109.617 116.262 110.451 115.542 110.451 114.513V97.0223C110.451 96.0962 109.721 95.2733 108.679 95.2733H88.8789C87.9411 95.2733 87.1073 95.9932 87.1073 97.0223V114.513C87.1073 115.542 87.837 116.262 88.8789 116.262ZM116.286 116.262H136.087C137.024 116.262 137.858 115.542 137.858 114.513V97.0223C137.858 96.0962 137.129 95.2733 136.087 95.2733H116.286C115.349 95.2733 114.515 95.9932 114.515 97.0223V114.513C114.515 115.542 115.349 116.262 116.286 116.262ZM61.0551 91.2606H80.8549C81.7927 91.2606 82.6265 90.4378 82.6265 89.5116V72.0206C82.6265 71.0944 81.8968 70.2712 80.8549 70.2712H61.0547C60.1169 70.2712 59.2831 70.9915 59.2831 72.0206V89.5116C59.3876 90.4374 60.1176 91.2606 61.0551 91.2606ZM88.8789 91.2606H108.679C109.617 91.2606 110.451 90.4378 110.451 89.5116V72.0206C110.451 71.0944 109.721 70.2712 108.679 70.2712H88.8789C87.9411 70.2712 87.1073 70.9915 87.1073 72.0206V89.5116C87.1073 90.4374 87.837 91.2606 88.8789 91.2606ZM116.286 91.2606H136.087C137.024 91.2606 137.858 90.4378 137.858 89.5116V72.0206C137.858 71.0944 137.024 70.2712 136.087 70.2712H116.286C115.349 70.2712 114.515 70.9915 114.515 72.0206V89.5116C114.515 90.4374 115.349 91.2606 116.286 91.2606ZM116.286 66.1559H136.087C137.024 66.1559 137.858 65.4356 137.858 64.4069V46.9159C137.858 45.9897 137.024 45.1665 136.087 45.1665H116.286C115.349 45.1665 114.515 45.8868 114.515 46.9159V64.4069C114.515 65.3327 115.349 66.1559 116.286 66.1559ZM143.902 116.262H163.702C164.64 116.262 165.474 115.542 165.474 114.513V97.0223C165.474 96.0962 164.745 95.2733 163.702 95.2733H143.902C142.964 95.2733 142.131 95.9932 142.131 97.0223V114.513C142.235 115.542 142.965 116.262 143.902 116.262" fill="#0091E2"/>
</svg>
