<svg width="250" height="250" viewBox="0 0 250 250" fill="none" xmlns="http://www.w3.org/2000/svg">
<g clip-path="url(#clip0_1808_355)">
<path d="M85.8702 191.735C78.3673 185.861 70.3618 180.232 64.8928 172.3C53.3798 158.313 44.5179 142.122 38.4594 125.105C34.7964 114.038 33.5421 102.175 28.8171 91.5379C23.8814 83.8098 29.6675 75.3679 38.1723 72.9126C41.9561 72.1865 48.6133 68.6315 40.5771 71.1756C33.3712 76.4339 32.6771 66.3968 40.0646 65.7611C45.1066 65.0956 46.9627 60.9899 45.2366 57.2939C39.8222 53.7787 58.361 49.9219 49.032 44.6782C39.3205 34.2474 62.6219 32.2394 56.8719 44.0877C55.4976 53.1974 73.1598 42.4144 69.0582 52.9363C73.2253 57.9901 84.6582 54.0889 84.3711 61.1745C90.4397 61.5896 92.5228 66.6679 98.2135 67.0585C104.121 69.7129 114.82 71.8006 116.827 78.4213C110.971 83.0339 97.4139 68.8919 96.7591 81.6623C98.5305 100.531 98.0788 119.968 105.013 137.935C108.293 148.813 116.248 157.376 123.429 165.85C130.303 174.147 139.612 179.992 149.103 184.91C157.425 188.815 166.398 191.404 175.471 193.032C179.149 190.232 185.645 179.821 191.381 184.208C191.658 189.147 179.995 194.525 190.833 193.979C197.204 192.066 201.617 198.875 206.86 192.731C211.691 198.426 226.937 189.096 223.501 200.734C218.851 203.719 212.073 201.916 207.419 206.023C199.745 202.207 193.635 209.433 185.137 208.522C175.702 210.204 166.1 210.881 156.535 210.895C140.84 209.662 124.814 209.142 109.883 203.703C101.47 201.271 93.2631 196.503 85.8702 191.735ZM99.1246 197.454C107.337 200.985 115.369 204.71 124.371 205.837C138.652 207.811 153.4 210.855 167.731 208.081C161.245 205.167 154.537 209.213 148.076 205.998C140.327 207.655 132.01 205.572 124.128 204.545C115.171 200.575 105.501 197.845 97.1123 192.686C86.6251 188.876 102.532 197.574 105.365 198.281C111.917 201.98 98.1581 196.382 96.215 194.845C90.7267 191.78 90.028 192.421 95.6733 195.531C96.8098 196.193 97.9326 196.889 99.1246 197.454ZM83.4954 186.462C91.4562 189.397 83.46 180.893 79.8171 181.384C78.201 178.594 73.6431 176.831 76.8582 175.334C71.0767 177.333 70.7997 167.737 68.0832 169.11C61.9639 167.187 65.7023 160.376 58.411 156.19C57.7461 151.782 51.1697 147.961 49.0766 141.315C48.1508 137.911 41.6445 128.141 45.6399 137.233C49.0412 145.987 55.0243 153.49 60.0062 160.977C63.8708 168.107 68.4403 175.565 75.48 180.012C77.8555 182.28 80.1449 185.75 83.4954 186.462ZM60.5703 161.407C62.0247 163.996 60.8458 160.21 60.5703 161.407ZM93.0315 189.977C94.7921 189.191 90.4951 188.986 93.0315 189.977ZM97.3485 191.546C96.9014 189.381 95.3762 192.757 97.3485 191.546ZM102.758 193.79C105.329 191.349 98.7875 192.25 102.758 193.79ZM112.027 198.931C113.592 196.632 107.02 198.065 112.027 198.931ZM94.2296 186.583C98.2235 184.008 89.0614 186.547 94.2296 186.583ZM98.285 188.596C98.1688 187.238 96.8406 189.206 98.285 188.596ZM118.558 201.19C121.819 203.239 137.595 205.677 127.717 202.031C126.061 202.377 109.4 197.338 118.558 201.19ZM86.3742 176.241C86.0572 174.88 81.3107 174.734 86.3742 176.241ZM95.8087 181.721C98.2689 180.013 90.7113 180.403 95.8087 181.721ZM103.749 186.563C107.276 185.241 98.0334 185.236 103.749 186.563ZM82.5297 172.079C86.3542 174.998 97.9588 172.455 88.3866 170.337C84.0341 168.028 74.2218 166.447 80.9106 171.729L82.5297 172.079ZM109.129 188.235C110.724 185.535 102.446 186.692 109.129 188.235ZM101.047 181.844C110.397 184.474 93.1823 175.955 98.7383 180.873L99.9719 181.429L101.047 181.844ZM117.252 191.164C126.107 191.248 109.25 189.948 117.252 191.164ZM79.1237 166.98C78.7759 165.338 76.9398 167.117 79.1237 166.98ZM132.231 199.527C132.468 196.563 129.343 201.736 132.231 199.527ZM94.2396 176.19C93.7009 174.628 91.4724 176.125 94.2396 176.19ZM79.9633 165.95C85.0468 165.645 72.999 163.721 79.9633 165.95ZM63.0505 155.072C62.4172 152.644 57.5207 150.711 63.0505 155.072ZM107.449 183.112C107.01 183.342 106.517 182.054 107.449 183.112ZM135.079 199.989C134.994 198.371 133.574 200.599 135.079 199.989ZM105.003 180.598C105.502 178.515 100.666 179.966 105.003 180.598ZM84.4165 167.612C88.2011 167.211 78.3526 165.068 84.4165 167.612ZM119.239 189.147C125.136 186.823 113.493 188.014 119.239 189.147ZM101.128 176.913C107.921 177.783 93.0422 172.31 99.634 176.421L101.128 176.913ZM124.738 191.359C131.084 187.589 128.991 200.199 135.503 192.426C141.923 187.759 129.957 198.195 137.867 193.258C143.593 189.446 152.047 195.065 157.387 196.893C161.225 196.708 164.96 200.199 168.899 198.074C176.477 196.041 154.075 195.061 159.947 191.459C153.013 193.469 147.891 189.066 144.479 184.644C136.699 182.856 127.707 178.9 123.823 172.044C122.237 169.476 126.108 172.41 122.454 168.203C117.77 164.056 115.43 159.343 112.284 154.301C108.525 152.308 108.083 146.434 107.705 154.107C107.736 149.263 103.166 146.003 102.049 147.356C102.029 142.692 106.941 145.031 103.503 141.581C102.764 136.748 100.328 131.711 99.5979 126.252C98.462 123.623 99.4363 117.989 95.714 123.943C94.3597 130.238 95.2662 116.211 97.3747 120.834C100.142 116.116 96.3774 116.671 96.2265 117.323C98.0288 113.342 97.3693 107.693 95.7541 109.846C96.7152 105.624 97.2739 94.3118 94.3204 96.3198C96.1111 91.9032 97.7171 76.1168 89.9364 82.1379C86.7867 82.1823 81.3277 83.2752 78.7513 84.5519C86.8375 88.9892 77.9356 86.154 74.6397 85.4479C74.2118 89.5543 70.9513 87.7814 66.8751 87.8212C73.3869 88.6223 63.7046 94.4458 59.977 92.1835C55.1259 94.4871 64.1586 100.246 60.0724 102.028C60.5765 104.708 52.6449 101.058 53.2644 107.258C48.5587 105.283 52.6203 114.609 54.9751 111.454C62.9813 113.613 60.6111 118.525 60.8119 123.197C59.5084 125.916 54.371 116.802 59.6692 117.224C55.4876 110.466 55.0458 114.779 51.573 117.919C50.768 118.145 60.4295 122.385 54.3664 124.479C59.7 125.301 59.8562 129.948 60.9435 132.888C64.1486 136.212 63.4884 129.216 67.3291 133.214C64.8974 129.652 54.4664 123.181 62.8658 125.256C62.8197 121.675 61.3452 118.785 63.9216 118.855C66.4734 114.263 61.2498 130.183 66.9967 124.344C68.5857 123.654 68.9844 119.747 71.8424 124.715C75.9933 128.782 73.3422 131.725 67.4846 128C68.5311 131.54 75.3192 132.802 74.041 138.336C75.3938 143.204 77.2868 141.41 78.9367 141.13C80.2295 145.858 80.966 142.382 81.026 140.128C86.9483 141.392 85.5593 144.877 87.4154 147.31C91.4962 149.142 81.5739 134.885 88.5789 143.023C95.9495 149.649 91.3462 152.413 84.7297 151.352C88.916 151.015 90.2634 156.986 95.5032 156.776C100.278 159.039 103.514 167.723 95.2816 164.106C92.4281 161.542 82.318 158.382 90.5766 163.255C98.195 166.771 104.254 168.869 111.605 173.282C116.864 177.018 119.137 181.298 121.13 182.146C116.708 184.248 107.806 180.468 114.417 179.311C110.291 178.565 105.653 176.487 109.602 181.6C112.963 184.394 121.503 184.098 123.038 184.413C121.74 187.258 119.511 187.484 123.088 187.704C119.097 189.822 124.371 190.153 124.738 191.359ZM116.576 168.419C114.146 165.89 113.517 161.158 116.144 165.273C117.493 165.814 120.457 173.011 116.576 168.419ZM143.161 185.225C144.675 185.126 143.206 186.371 143.161 185.225ZM112.743 162.219C113.617 165.168 112.646 158.398 112.743 162.219ZM110.1 158.683C113.95 160.346 107.042 152.809 110.1 158.683ZM78.0764 136.689C79.8732 136.212 78.9621 139.742 78.0764 136.689ZM103.564 150.435C104.858 153.891 104.666 146.313 103.564 150.435ZM85.5593 137.975C88.2119 140.109 84.2919 135.702 85.5593 137.975ZM101.008 142.903C98.1142 136.453 103.061 139.377 101.652 143.96L101.008 142.903ZM74.3634 125.22C73.0706 123.102 70.9313 116.892 71.6208 114.995C72.2395 118.084 78.218 128.285 74.5489 119.222C70.4988 111.624 79.3954 121.685 80.3111 123.583C80.739 125.466 77.8101 123.068 79.7924 127.489C76.1749 122.456 77.6585 130.269 74.3634 125.22ZM66.1309 119.572C68.0132 122.947 66.468 114.649 66.1309 119.572ZM69.8347 120.843C72.8282 126.022 71.6008 117.129 69.8347 120.843ZM60.9228 113.983C57.8577 110.947 55.6384 108.154 61.0682 112.099C63.1567 112.18 56.4195 105.745 61.5722 110.056C66.9859 111.039 64.2433 118.896 60.9228 113.983ZM65.6023 113.863C67.3845 112.105 66.5488 115.591 65.6023 113.863ZM68.4857 114.779C71.7616 116.893 65.7831 109.746 68.4857 114.779ZM62.7596 109.336C53.8485 101.437 73.9555 113.462 64.214 110.797L62.7596 109.336ZM88.2965 124.099C84.4373 121.799 87.27 107.899 88.5889 117.403C92.3381 116.196 88.3812 122.316 91.1746 122.256C90.7375 126.116 89.4847 127.505 88.2965 124.099ZM97.7418 129.657C98.5367 132.523 98.1188 125.466 97.7418 129.657ZM96.1019 128.04C96.5244 126.252 96.1419 130.148 96.1019 128.04ZM64.5049 106.741C58.7796 98.8785 81.146 114.693 68.1741 108.735C66.8197 108.38 65.1852 108.254 64.5049 106.741ZM82.6959 116.337C83.904 117.433 82.1534 109.717 82.6959 116.337ZM96.5036 125.155C97.5701 121.384 96.5851 127.65 96.5036 125.155ZM65.386 103.742C68.7881 103.016 79.4854 109.686 69.6631 105.645C68.5719 104.442 66.2418 104.989 65.386 103.742ZM94.6059 118.234C94.9699 111.464 96.6406 114.193 94.6213 119.206L94.6059 118.234ZM67.917 101.384C69.3053 99.3594 64.2325 92.234 68.6458 98.8287C70.5542 100.336 74.1656 101.353 70.9759 101.989C75.9925 106.391 69.7539 103.181 67.917 101.384ZM93.1615 116.121C94.1188 108.409 94.008 120.638 93.1615 116.121ZM65.0182 94.262C66.0802 93.8101 65.5815 95.6681 65.0182 94.262ZM71.6054 98.1632C74.7297 102.109 73.2999 94.6219 71.6054 98.1632ZM90.178 108.444C90.5297 110.422 90.1626 107.087 90.178 108.444ZM89.1007 106.076C91.5016 109.426 86.5243 99.7454 89.1007 106.076ZM87.5201 101.923C88.9899 105.209 87.0891 99.3089 87.5201 101.923ZM90.0965 97.7573C88.3258 94.6564 92.332 84.0855 92.7798 90.6411C90.9122 95.7493 92.2411 98.6043 93.5386 91.7531C95.9449 86.3646 93.0207 102.395 90.0965 97.7573ZM92.7436 82.0376C93.5147 81.0956 92.9153 83.1733 92.7436 82.0376ZM88.3219 168.739C88.4566 169.315 87.2746 167.827 88.3219 168.739ZM97.4293 173.322C102.496 174.619 102.471 172.54 97.891 171.919C95.4308 169.641 87.6563 167.222 94.6159 171.638C95.0746 172.801 96.529 172.77 97.4293 173.322ZM79.4454 161.432C82.2326 163.507 89.9564 167.301 83.42 162.225C85.6239 159.674 79.203 158.318 81.3323 156.611C75.9125 153.309 77.0537 153.605 80.8544 153.711C74.3426 150.81 81.7948 151.031 81.4431 149.544C78.9321 149.053 68.9682 145.136 74.8305 149.865C68.8728 146.844 73.4107 150.991 71.61 150.555C65.5153 148.903 77.0352 155.173 70.6435 153.616C74.1364 156.37 80.0487 160.677 72.1179 156.53C71.0767 158.027 77.7955 160.296 79.4454 161.432ZM88.9699 166.881C100.549 170.592 83.2884 162.339 88.9699 166.881ZM137.73 196.277C137.881 193.989 136.15 198.23 137.73 196.277ZM142.742 198.375C145.414 195.802 142.853 202.482 147.17 197.745C147.215 194.354 147.039 192.352 142.209 196.472C140.875 197.209 140.282 200.328 142.742 198.375ZM63.1867 148.654C62.3656 145.443 57.4345 145.457 63.1867 148.654ZM68.535 152.143C66.5473 148.864 61.4445 149.174 68.535 152.143ZM98.9838 170.417C101.959 173.047 112.636 172.345 102.593 170.743C101.108 168.554 93.1523 169.08 98.9838 170.417ZM140.835 196.144C145.409 192.322 136.402 197.846 140.835 196.144ZM150.351 202.648C150.38 201.421 148.378 203.184 150.351 202.648ZM150.366 200.93C155.433 195.592 145.46 201.246 150.366 200.93ZM50.0224 137.685C45.7053 131.556 47.3405 128.801 43.1743 123.793C42.3832 119.962 36.0292 111.278 39.8884 120.478C43.4205 125.861 44.4663 134.194 50.0224 137.685ZM148.776 199.232C158.101 193.237 144.952 196.623 148.776 199.232ZM155.891 202.006C160.561 198.019 152.937 201.175 155.891 202.006ZM61.6007 141.876C62.9351 139.898 58.1494 141.621 61.6007 141.876ZM154.406 200.113C158.925 197.214 153.365 197.659 153.587 200.378L154.406 200.113ZM93.0761 161.642C92.9206 159.68 90.6867 161.808 93.0761 161.642ZM96.8653 163.811C95.6579 161.387 95.0138 164.192 96.8653 163.811ZM161.657 202.072C167.449 197.914 158.151 201.275 160.445 202.863L161.657 202.072ZM159.439 201.005C164.158 197.073 154.462 202.748 159.439 201.005ZM170.769 208.511C173.936 206.403 166.921 207.831 170.769 208.511ZM64.5049 140.449C68.7466 141.395 81.4669 150.85 73.9648 141.106C70.121 139.974 72.4257 130.623 68.5057 132.276C71.1375 136.653 70.6681 138.51 65.1429 135.757C58.2048 132.381 61.2437 137.425 62.6034 138.817C60.7504 139.238 65.0482 140.415 64.5042 140.449L64.5049 140.449ZM45.1666 125.251C45.9261 122.12 38.167 108.043 41.5036 118.195C42.7056 120.323 42.581 124.354 45.1666 125.251ZM80.662 147.029C80.5566 146.769 78.4735 145.212 80.662 147.029ZM86.041 148.278C86.041 144.962 80.0941 146.93 86.041 148.278ZM132.688 177.538C131.798 175.274 129.172 177.488 132.688 177.538ZM134.928 179.165C134.595 177.898 133.633 179.411 134.928 179.165ZM153.415 190.758C155.192 189.452 151.196 190.589 153.415 190.758ZM54.8235 127.705C59.9101 125.746 49.3729 126.307 54.8235 127.705ZM128.581 173.947C128.522 170.672 125.336 174.764 128.581 173.947ZM52.815 123.042C56.0809 121.946 49.7907 122.322 52.815 123.042ZM62.2956 127.614C62.2394 126.538 61.2944 128.025 62.2956 127.614ZM177.956 198.2C182.158 197.354 191.734 200.329 193.278 197.094C188.176 196.969 175.631 193.508 175.037 197.914L176.155 198.09L177.956 198.2ZM65.3091 128.37C65.386 125.05 62.7081 128.246 65.3091 128.37ZM40.3824 111.158C39.2505 104.832 36.0746 110.201 40.3824 111.158ZM46.3248 112.645C46.4009 110.612 40.8842 110.817 46.3248 112.645ZM49.7215 114.308C48.9565 115.304 48.7403 113.516 49.7215 114.308ZM71.1021 127.955C72.1094 127.032 68.7173 127.274 71.1021 127.955ZM47.4621 110.562C46.8842 105.785 40.5733 109.846 47.4621 110.562ZM35.2689 102.689C35.0973 100.486 34.0807 103.52 35.2689 102.689ZM37.085 101.328C36.7887 98.7131 35.5252 101.658 37.085 101.328ZM47.1004 107.277C51.3375 105.624 39.3851 103.851 46.2347 106.967L47.1004 107.277ZM181.173 189.697C183.885 187.223 177.731 188.931 181.173 189.697ZM197.371 198.05C198.458 194.856 194.633 198.471 197.371 198.05ZM48.1239 102.054C48.5726 98.9597 44.7634 102.669 48.1239 102.054ZM33.8699 92.5496C33.105 88.1827 33.2104 80.5151 40.5325 83.1044C30.7594 85.0374 47.3005 95.1971 45.212 87.1749C49.3228 87.3763 53.2536 84.7571 51.0943 88.7272C59.1959 87.8412 64.8074 80.8505 72.6312 81.8323C78.7243 81.0267 85.3869 80.4201 91.9541 77.9763C97.3531 77.5903 102.551 71.8059 99.5932 68.3757C92.2311 67.7554 84.5212 68.6713 76.385 70.2842C67.3684 72.1467 59.1767 75.6918 50.0778 77.2151C41.2058 78.4021 51.8592 80.4799 49.3175 80.9455C44.6926 82.543 54.8381 83.6198 48.7188 85.307C44.9404 84.5917 41.005 83.2997 42.6202 79.3334C34.1261 80.4347 26.6586 83.9399 33.372 92.5434L33.8707 92.548L33.8699 92.5496ZM54.3456 82.1724C56.3333 74.8716 65.0128 88.1827 57.6061 83.1442C56.725 82.4825 55.2652 81.9465 54.3456 82.1724ZM54.7319 78.6311C57.6061 76.5036 56.2571 79.8289 54.7319 78.6311ZM58.3802 78.6924C58.6434 75.3319 66.7396 80.4699 59.7146 79.8994L58.3802 78.6924ZM63.3722 76.6943C65.199 74.5698 63.9016 78.5767 63.3722 76.6943ZM64.6511 75.8434C67.69 72.2126 81.8448 73.5237 71.4838 75.4866C68.7058 73.4035 66.578 76.7134 64.6511 75.8434ZM83.1276 73.0083C92.3112 76.5289 82.6705 63.0868 83.1276 73.0083ZM88.3719 72.9777C90.2881 67.9805 95.8133 70.9704 89.2623 71.9713C89.4023 72.5074 89.0661 74.5561 88.3719 72.9777ZM46.0577 99.4896C51.783 95.9989 39.9784 96.4607 46.0577 99.4896ZM50.294 100.657C52.3025 98.5339 45.9261 99.7952 50.294 100.657ZM37.8153 91.8481C41.0858 89.3437 33.9407 90.8969 37.8153 91.8481ZM206.931 197.139C207.026 194.234 204.43 198.445 206.931 197.139ZM189.746 185.465C190.234 182.126 187.538 185.756 189.746 185.465ZM211.655 198.266C216.23 198.281 225.518 196.848 215.565 196.853C214 197.094 206.463 197.044 211.655 198.266ZM54.0185 98.6074C57.7223 98.357 59.81 94.5454 53.2982 94.7613C43.2097 93.7251 62.1994 98.2023 52.0054 96.9202C50.6372 97.8216 53.937 98.8578 54.0185 98.6074ZM57.279 100.251C56.8912 97.8867 56.1309 101.507 57.279 100.251ZM61.1482 89.984C62.7535 88.0004 58.9243 89.4533 61.1482 89.984ZM48.8296 69.4977C55.4422 67.2645 64.4795 64.7502 67.6 70.6005C64.4241 66.7996 66.3172 63.0531 69.316 68.6169C73.5577 74.2413 75.6801 66.0583 72.9228 64.1697C76.0687 68.0556 79.6408 69.8944 75.026 64.4163C80.0433 58.4113 64.9874 65.202 61.5661 65.1316C59.9208 65.8668 44.5671 69.0274 48.8296 69.4977ZM52.7042 62.1172C56.4741 59.2882 65.7423 63.8044 59.7946 59.302C59.2113 58.7919 46.7726 62.7176 52.7042 62.1172ZM66.4472 62.6824C70.8551 62.7927 64.5457 56.7831 69.7985 59.5072C68.9382 56.7035 63.68 56.1773 61.109 55.0561C59.6546 57.6202 64.0663 62.7176 66.4472 62.6824ZM55.1143 50.2673C56.6395 48.2095 52.4379 51.3142 55.1143 50.2673ZM60.7319 51.6037C67.8408 50.6679 58.9189 48.5595 59.296 51.5294L60.7319 51.6037ZM50.2432 43.4414C45.2359 36.9363 59.6584 44.5335 54.5703 37.722C50.2886 34.3324 46.1778 41.5436 50.2432 43.4414ZM114.476 77.8714C116.772 73.8239 105.002 72.4125 112.932 76.4377C113.661 76.679 113.496 78.1509 114.476 77.8714ZM67.8686 228.606C67.3607 230.601 67.0459 233.95 66.9282 238.651C66.9282 239.575 66.5103 240.037 65.6723 240.037C64.8343 240.037 64.251 239.634 63.9209 238.83C63.0236 236.657 62.174 235.141 61.3629 234.276C60.4072 233.265 59.1359 232.654 57.5499 232.445C55.8454 232.177 51.5991 232.043 44.8103 232.043C43.2559 232.043 42.2378 232.208 41.7607 232.537C41.4613 232.743 41.312 233.191 41.312 233.876V254.101C41.312 254.786 41.7453 255.112 42.611 255.084C45.2743 255.053 49.132 254.872 54.1847 254.548C55.1728 254.427 55.8392 254.107 56.1824 253.586C56.5287 253.065 56.865 251.72 57.1921 249.546C57.3998 248.355 58.1047 247.893 59.3006 248.163C60.3164 248.371 60.7535 248.833 60.6034 249.546C59.7646 253.596 59.4937 258.864 59.7931 265.353C59.8246 266.125 59.3314 266.543 58.3133 266.603C57.4745 266.692 56.9512 266.245 56.7434 265.263C55.9677 261.543 54.5218 259.555 52.4156 259.301C50.3071 259.049 46.8727 258.922 42.1193 258.922C41.5806 258.922 41.312 259.114 41.312 259.502V279.594C41.312 281.083 41.8638 282.096 42.9696 282.63C43.8392 283.076 45.7076 283.479 48.5772 283.836C50.0447 283.984 50.6857 284.626 50.5087 285.755C50.3279 286.738 49.0135 287.125 46.5587 286.917C39.4713 286.35 33.6229 286.381 29.0188 287.008C27.7313 287.184 27.0903 286.663 27.0903 285.445C27.0903 284.669 27.7313 284.223 29.0188 284.105C31.9499 283.776 33.4143 281.216 33.4143 276.426V238.204C33.4143 236.242 33.0619 234.732 32.3608 233.674C31.6567 232.617 30.3477 231.656 28.4362 230.794C27.2388 230.257 26.791 229.529 27.0895 228.606C27.2388 228.041 27.4789 227.727 27.806 227.669C28.1053 227.579 28.8995 227.638 30.1831 227.848C32.0684 228.145 36.5109 228.295 43.5083 228.295C51.7646 228.295 58.8958 228.115 64.9089 227.759C66.912 227.638 67.9155 227.802 67.9155 228.249C67.9155 228.37 67.9001 228.487 67.8686 228.606ZM96.9622 285.283C96.9622 286.474 96.2889 286.995 94.9437 286.846C90.819 286.458 85.7032 286.516 79.6024 287.023C78.375 287.144 77.6216 287.112 77.3353 286.936C77.0506 286.756 76.9105 286.266 76.9105 285.459C76.9105 284.747 77.7239 284.145 79.3538 283.652C80.986 283.163 81.7986 281.696 81.7986 279.256V238.849C81.7986 236.436 81.4469 234.666 80.7459 233.534C80.0418 232.403 78.8082 231.525 77.0444 230.902C76.1164 230.572 75.6516 230.111 75.6516 229.515C75.6516 228.622 76.3249 227.953 77.6708 227.507C79.7055 226.852 81.8148 225.842 83.9987 224.471C85.7932 223.399 86.9306 222.865 87.4069 222.865C88.5128 222.865 89.0684 223.621 89.0684 225.14C89.0684 225.023 89.0083 226.511 88.8868 229.605C88.7998 232.551 88.769 235.453 88.7998 238.313L88.9768 278.182C88.9768 279.999 89.4262 281.317 90.3235 282.136C91.2207 282.954 92.7629 283.497 94.9437 283.764C96.2889 283.912 96.9622 284.419 96.9622 285.283ZM137.539 282.65C137.539 283.277 136.395 284.22 134.108 285.484C131.819 286.75 129.987 287.383 128.612 287.383C127.444 287.383 126.414 286.818 125.516 285.686C124.619 284.555 123.989 283.991 123.631 283.991C123.363 283.991 121.942 284.601 119.368 285.819C116.798 287.041 114.21 287.652 111.608 287.652C109.156 287.652 107.106 286.936 105.462 285.51C103.667 283.931 102.77 281.788 102.77 279.078C102.77 273.929 108.692 270.239 120.537 268.007C122.568 267.619 123.603 266.8 123.63 265.551L123.722 262.692C123.902 257.812 121.733 255.372 117.216 255.372C115.93 255.372 114.711 256.516 113.558 258.807C112.409 261.102 110.755 262.336 108.601 262.516C106.15 262.751 104.922 261.725 104.922 259.434C104.922 258.004 106.748 256.34 110.396 254.433C114.225 252.439 117.905 251.441 121.434 251.441C127.504 251.441 130.51 254.315 130.451 260.06L130.27 278.453C130.242 280.388 131.065 281.355 132.738 281.355C133.068 281.355 133.697 281.281 134.622 281.132C135.551 280.983 136.09 280.908 136.24 280.908C137.106 280.908 137.539 281.491 137.539 282.65ZM123.722 272.472C123.753 271.727 123.578 271.234 123.204 270.999C122.83 270.761 122.242 270.713 121.434 270.863C114.225 272.143 110.621 274.48 110.621 277.873C110.621 281.296 112.49 283.007 116.228 283.007C117.724 283.007 119.266 282.725 120.848 282.161C122.705 281.504 123.631 280.717 123.631 279.792L123.722 272.472ZM170.893 277.514C170.893 280.669 169.671 283.179 167.236 285.038C164.799 286.899 161.472 287.829 157.253 287.829C154.443 287.829 151.63 287.532 148.819 286.936C146.395 286.4 144.99 285.91 144.602 285.463C144.361 285.044 144.243 283.008 144.243 279.346C144.243 277.768 144.602 276.949 145.32 276.89C146.038 276.8 146.652 277.188 147.16 278.05C149.402 281.95 153.022 283.901 158.017 283.901C162.232 283.901 164.341 282.441 164.341 279.523C164.341 278.245 163.864 277.172 162.905 276.31C161.858 275.327 159.827 274.181 156.805 272.871C152.437 270.938 149.52 269.241 148.056 267.781C146.47 266.234 145.678 264.151 145.678 261.53C145.678 258.314 146.919 255.816 149.402 254.03C151.704 252.302 154.786 251.441 158.642 251.441C161.066 251.441 163.279 251.632 165.285 252.02C167.438 252.408 168.559 252.883 168.649 253.45C168.886 255.114 169.382 257.527 170.13 260.684C170.22 261.068 169.799 261.381 168.874 261.62C167.886 261.828 167.229 261.663 166.899 261.129C164.537 257.288 161.547 255.369 157.926 255.369C153.829 255.369 151.78 256.678 151.78 259.298C151.78 260.757 152.334 261.917 153.44 262.779C154.428 263.523 156.745 264.686 160.394 266.264C164.222 267.901 166.824 269.374 168.202 270.683C169.996 272.379 170.893 274.658 170.893 277.514ZM223.673 285.328C223.673 286.369 222.969 286.921 221.564 286.98C219.47 287.01 216.731 287.159 213.355 287.426C211.679 287.755 210.482 287.547 209.765 286.803C205.039 281.743 201.03 276.444 197.739 270.906C197.471 270.431 197.128 270.193 196.708 270.193C196.2 270.193 195.319 270.64 194.063 271.533C192.655 272.305 191.954 273.408 191.954 274.834C191.954 275.848 191.982 277.306 192.044 279.213C192.104 281.116 192.58 282.365 193.478 282.961C194.106 283.38 195.559 283.706 197.829 283.945C199.235 284.124 199.939 284.645 199.939 285.507C199.939 286.192 199.827 286.617 199.602 286.778C199.379 286.942 198.787 286.98 197.829 286.89C194.839 286.624 189.785 286.772 182.667 287.337C180.873 287.485 179.9 287.262 179.751 286.666C179.691 286.46 179.66 286.161 179.66 285.773C179.66 284.853 180.573 284.151 182.399 283.678C184.044 283.258 184.866 281.339 184.866 277.917V238.893C184.866 236.453 184.627 234.757 184.146 233.805C183.489 232.583 182.112 231.631 180.018 230.946C179.033 230.62 178.539 230.159 178.539 229.563C178.539 228.697 179.243 228.028 180.647 227.554C182.908 226.801 185.064 225.766 187.062 224.472C188.708 223.402 189.726 222.866 190.112 222.866C191.341 222.866 191.954 223.638 191.954 225.188C191.954 224.978 191.939 226.454 191.907 229.607C191.875 232.525 191.86 235.442 191.864 238.359L191.954 266.308C191.954 267.083 192.162 267.468 192.58 267.468C193.029 267.468 193.718 267.083 194.646 266.308C197.128 264.373 200.179 261.843 203.796 258.718C204.516 257.974 204.874 257.378 204.874 256.932C204.874 256.129 203.662 255.561 201.241 255.236C200.195 255.114 199.699 254.535 199.758 253.493C199.849 252.452 200.373 252.005 201.328 252.154C203.485 252.452 206.625 252.616 210.75 252.647C213.622 252.674 216.479 252.691 219.321 252.691C220.246 252.721 220.711 253.27 220.711 254.343C220.711 255.354 219.978 255.906 218.514 255.996C216.208 256.082 214.039 256.603 212.009 257.558C209.167 258.836 206.129 261.083 202.899 264.299C202.662 264.478 202.54 264.701 202.54 264.969C202.54 265.384 203.048 266.383 204.067 267.961C207.805 273.616 211.335 277.886 214.654 280.775C216.778 282.59 218.766 283.497 220.62 283.497C221.997 283.497 222.85 283.594 223.177 283.788C223.508 283.982 223.673 284.496 223.673 285.328Z" fill="black"/>
</g>
<defs>
<clipPath id="clip0_1808_355">
<rect width="197" height="177" fill="white" transform="translate(27 36)"/>
</clipPath>
</defs>
</svg>
