<svg width="250" height="250" viewBox="0 0 250 250" fill="none" xmlns="http://www.w3.org/2000/svg">
<g clip-path="url(#clip0_1802_467)">
<path d="M33.5833 116.535L116.539 33.5833C121.314 28.8059 129.062 28.8059 133.842 33.5833L151.069 50.8095L129.216 72.6617C124.138 70.9458 118.315 72.0969 114.267 76.1448C110.2 80.2187 109.057 86.0916 110.815 91.186L89.755 112.246C84.6599 110.491 78.781 111.627 74.7116 115.703C69.0242 121.388 69.0242 130.602 74.7116 136.291C80.4005 141.981 89.6147 141.981 95.3066 136.291C99.5845 132.009 100.641 125.726 98.4757 120.456L118.115 100.816L118.118 152.5C116.694 153.204 115.394 154.133 114.267 155.253C108.58 160.938 108.58 170.153 114.267 175.847C119.956 181.533 129.175 181.533 134.856 175.847C140.543 170.153 140.543 160.939 134.856 155.254C133.493 153.89 131.873 152.81 130.09 152.077V99.9112C131.875 99.1823 133.496 98.1018 134.856 96.7338C139.165 92.4306 140.201 86.1079 137.993 80.8169L159.534 59.2734L216.415 116.151C221.195 120.933 221.195 128.682 216.415 133.46L133.458 216.413C128.682 221.191 120.935 221.191 116.153 216.413L33.584 133.845C28.8058 129.066 28.8051 121.312 33.5833 116.535Z" fill="#DE4C36"/>
</g>
<defs>
<clipPath id="clip0_1802_467">
<rect width="190" height="190" fill="white" transform="matrix(-1 0 0 1 220 30)"/>
</clipPath>
</defs>
</svg>
