<svg width="250" height="250" viewBox="0 0 250 250" fill="none" xmlns="http://www.w3.org/2000/svg">
<g clip-path="url(#clip0_1802_476)">
<path d="M30 30H220V220H30V30Z" fill="#F0DB4F"/>
<path d="M204.45 174.685C203.059 166.016 197.406 158.738 180.664 151.947C174.848 149.274 168.364 147.36 166.432 142.953C165.745 140.388 165.655 138.943 166.088 137.39C167.335 132.351 173.349 130.78 178.117 132.224C181.187 133.254 184.095 135.62 185.847 139.395C194.047 134.085 194.029 134.121 199.754 130.473C197.659 127.222 196.539 125.723 195.166 124.332C190.236 118.824 183.517 115.988 172.771 116.205C170.911 116.439 169.033 116.692 167.172 116.927C161.808 118.282 156.697 121.099 153.699 124.874C144.704 135.078 147.269 152.94 158.214 160.291C168.996 168.382 184.836 170.225 186.858 177.792C188.827 187.057 180.05 190.055 171.326 188.99C164.896 187.653 161.321 184.384 157.455 178.442C150.34 182.56 150.34 182.56 143.025 186.768C144.759 190.561 146.583 192.277 149.491 195.564C163.253 209.525 197.695 208.839 203.872 187.708C204.125 186.985 205.786 182.145 204.45 174.685ZM133.29 117.324H115.518C115.518 132.676 115.446 147.919 115.446 163.271C115.446 173.042 115.952 182 114.362 184.745C111.762 190.145 105.025 189.477 101.955 188.43C98.83 186.894 97.2407 184.709 95.3985 181.621C94.8928 180.736 94.5135 180.05 94.3869 179.995C89.5648 182.939 84.7605 185.901 79.9382 188.845C82.3405 193.776 85.8802 198.056 90.4135 200.837C97.1863 204.901 106.289 206.147 115.807 203.962C122.002 202.156 127.348 198.417 130.147 192.728C134.193 185.269 133.326 176.239 133.29 166.251C133.38 149.96 133.29 133.669 133.29 117.324Z" fill="#323330"/>
</g>
<defs>
<clipPath id="clip0_1802_476">
<rect width="190" height="190" fill="white" transform="translate(30 30)"/>
</clipPath>
</defs>
</svg>
