<svg width="250" height="250" viewBox="0 0 250 250" fill="none" xmlns="http://www.w3.org/2000/svg">
<g clip-path="url(#clip0_1809_377)">
<path d="M124.039 38.1284L128.673 46.8533C129.716 48.4634 130.844 49.8885 132.174 51.2157C136.072 55.0741 139.706 59.192 143.051 63.5415C150.904 73.8765 156.201 85.3537 159.984 97.7665C162.252 105.349 163.484 113.127 163.577 120.993C163.957 144.508 155.913 164.699 139.696 181.48C137.059 184.141 134.209 186.582 131.175 188.779C129.569 188.779 128.809 187.545 128.147 186.408C126.941 184.3 126.139 181.984 125.781 179.581C125.211 176.736 124.836 173.892 125.021 170.954V169.627C124.891 169.344 123.474 38.7975 124.039 38.1284Z" fill="#599636"/>
<path d="M124.039 37.8402C123.849 37.4594 123.659 37.7477 123.469 37.9327C123.561 39.8365 122.899 41.5336 121.862 43.1545C120.723 44.7646 119.214 45.9994 117.7 47.3266C109.287 54.6263 102.666 63.4437 97.3633 73.3054C90.3078 86.5776 86.6714 100.802 85.6403 115.777C85.1681 121.178 87.3444 140.238 89.0432 145.737C93.6781 160.337 102.004 172.57 112.788 183.188C115.436 185.744 118.269 188.116 121.2 190.395C122.052 190.395 122.145 189.633 122.34 189.068C122.714 187.857 122.998 186.621 123.192 185.369L125.092 171.15L124.039 37.8402Z" fill="#6CAC48"/>
<path d="M128.673 194.556C128.863 192.38 129.905 190.574 131.04 188.774C129.9 188.301 129.053 187.36 128.391 186.31C127.82 185.316 127.348 184.268 126.98 183.182C125.656 179.201 125.374 175.023 124.994 170.954V168.49C124.521 168.871 124.424 172.091 124.424 172.57C124.148 176.87 123.578 181.146 122.72 185.369C122.437 187.077 122.247 188.779 121.2 190.297C121.2 190.487 121.2 190.678 121.292 190.961C122.996 195.987 123.463 201.105 123.751 206.322V208.225C123.751 210.499 123.659 210.02 125.542 210.782C126.302 211.065 127.148 211.163 127.908 211.728C128.478 211.728 128.57 211.255 128.57 210.874L128.288 207.747V199.022C128.196 197.499 128.478 195.987 128.668 194.562L128.673 194.556Z" fill="#C2BFBF"/>
</g>
<defs>
<clipPath id="clip0_1809_377">
<rect width="78" height="174" fill="white" transform="translate(86 38)"/>
</clipPath>
</defs>
</svg>
