<svg width="250" height="250" viewBox="0 0 250 250" fill="none" xmlns="http://www.w3.org/2000/svg">
<path d="M201.074 175.709C191.47 175.468 184.026 176.433 177.783 179.086C175.982 179.809 173.101 179.809 172.861 182.101C173.821 183.066 173.941 184.634 174.782 185.96C176.224 188.371 178.743 191.627 181.025 193.317C183.545 195.246 186.067 197.175 188.707 198.863C193.39 201.758 198.673 203.445 203.235 206.34C205.877 208.027 208.516 210.199 211.158 212.008C212.479 212.971 213.318 214.54 215 215.143V214.782C214.159 213.696 213.919 212.128 213.079 210.922C211.88 209.716 210.678 208.631 209.477 207.425C205.996 202.722 201.674 198.622 196.992 195.246C193.151 192.592 184.746 188.975 183.186 184.512C183.186 184.512 183.065 184.392 182.946 184.272C185.586 184.03 188.707 183.066 191.23 182.342C195.311 181.256 199.032 181.498 203.235 180.412C205.155 179.93 207.076 179.327 208.997 178.724V177.639C206.837 175.468 205.276 172.574 202.995 170.524C196.872 165.217 190.148 160.032 183.186 155.691C179.464 153.279 174.661 151.711 170.7 149.661C169.26 148.937 166.858 148.576 166.018 147.37C163.856 144.717 162.656 141.22 161.096 138.084C157.615 131.451 154.252 124.095 151.251 117.102C149.091 112.398 147.77 107.694 145.129 103.354C132.763 82.8528 119.317 70.4317 98.6685 58.2512C94.2261 55.7191 88.9438 54.6337 83.3014 53.3077C80.3011 53.1864 77.2988 52.9459 74.2978 52.8246C72.3767 51.9803 70.4557 49.6895 68.7747 48.604C61.933 44.2622 44.2839 34.857 39.2418 47.2781C36 55.1161 44.0444 62.8335 46.8046 66.8142C48.8471 69.5875 51.4872 72.7225 52.928 75.8583C53.7685 77.9072 54.0079 80.0795 54.8484 82.2498C56.7701 87.5544 58.5697 93.4648 61.0918 98.4096C62.4126 100.942 63.8527 103.594 65.5336 105.886C66.4941 107.212 68.1744 107.816 68.5353 109.986C66.855 112.398 66.7343 116.016 65.7731 119.031C61.4513 132.658 63.133 149.541 69.255 159.549C71.1754 162.563 75.7379 169.198 81.8606 166.665C87.2636 164.494 86.0629 157.62 87.6224 151.591C87.984 150.142 87.7439 149.179 88.4636 148.214V148.456C90.1445 151.831 91.8247 155.088 93.3856 158.465C97.1077 164.373 103.59 170.524 108.992 174.625C111.874 176.794 114.155 180.533 117.757 181.86V181.497H117.516C116.796 180.412 115.715 179.93 114.755 179.085C112.595 176.915 110.193 174.262 108.513 171.85C103.471 165.096 99.0281 157.62 95.0665 149.902C93.1462 146.164 91.4645 142.064 89.9044 138.326C89.1833 136.877 89.1833 134.707 87.9833 133.984C86.1823 136.637 83.5415 138.929 82.2208 142.184C79.9409 147.37 79.7001 153.761 78.8596 160.393C78.3794 160.515 78.6188 160.393 78.3787 160.636C74.5379 159.669 73.2172 155.691 71.7757 152.314C68.1737 143.752 67.5734 130.004 70.6958 120.116C71.5363 117.583 75.1383 109.625 73.6975 107.213C72.9771 104.921 70.575 103.594 69.255 101.786C67.6948 99.4944 66.0132 96.6012 64.9333 94.0678C62.0517 87.3145 60.6109 79.8376 57.4898 73.0844C56.049 69.9486 53.529 66.6936 51.4872 63.7991C49.2066 60.5434 46.6852 58.2512 44.8842 54.3925C44.2846 53.0665 43.4434 50.8956 44.404 49.4483C44.6441 48.4834 45.1237 48.1223 46.0849 47.8811C47.6458 46.5537 52.0882 48.2422 53.6477 48.9659C58.0902 50.7736 61.8115 52.4634 65.5336 54.9955C67.2139 56.2015 69.0149 58.4931 71.1754 59.0961H73.6968C77.5389 59.9397 81.8599 59.3373 85.4619 60.4221C91.8254 62.4717 97.5873 65.4869 102.75 68.7432C118.477 78.7522 131.442 92.9824 140.207 109.986C141.648 112.758 142.247 115.292 143.568 118.186C146.09 124.095 149.211 130.125 151.731 135.913C154.252 141.581 156.653 147.37 160.255 152.073C162.056 154.605 169.259 155.932 172.501 157.259C174.902 158.343 178.624 159.309 180.784 160.635C184.866 163.166 188.948 166.062 192.79 168.835C194.711 170.282 200.713 173.297 201.074 175.709Z" fill="#00546B"/>
<path d="M78.6181 70.9128C76.5777 70.9128 75.1376 71.1554 73.6968 71.5166V71.7578H73.9369C74.8981 73.6875 76.5777 75.0142 77.7777 76.702C78.7389 78.631 79.5787 80.5614 80.5399 82.4911C80.6593 82.3698 80.7793 82.2498 80.7793 82.2498C82.461 81.0431 83.3007 79.1141 83.3007 76.2195C82.5803 75.376 82.4603 74.5317 81.8599 73.6875C81.1402 72.4807 79.5787 71.8784 78.6181 70.9128Z" fill="#00546B"/>
</svg>
