<svg width="250" height="250" viewBox="0 0 250 250" fill="none" xmlns="http://www.w3.org/2000/svg">
<g clip-path="url(#clip0_1802_481)">
<path d="M124.178 30.0537C75.5585 30.0537 78.5942 51.0021 78.5942 51.0021L78.6482 72.7054H125.045V79.2212H60.2202C60.2202 79.2212 29.1086 75.7156 29.1086 124.456C29.1086 173.198 56.2636 171.47 56.2636 171.47H72.4696V148.851C72.4696 148.851 71.5959 121.871 99.191 121.871H145.208C145.208 121.871 171.062 122.286 171.062 97.0455V55.311C171.062 55.311 174.989 30.0537 124.178 30.0537ZM98.5948 44.6487C99.6912 44.6477 100.777 44.8615 101.79 45.278C102.803 45.6944 103.724 46.3052 104.499 47.0755C105.274 47.8457 105.889 48.7603 106.308 49.7669C106.727 50.7735 106.943 51.8523 106.942 52.9416C106.943 54.031 106.727 55.1098 106.308 56.1164C105.889 57.123 105.274 58.0375 104.499 58.8078C103.724 59.5781 102.803 60.1889 101.79 60.6053C100.777 61.0217 99.6912 61.2356 98.5948 61.2346C97.4985 61.2356 96.4126 61.0217 95.3995 60.6053C94.3864 60.1889 93.4659 59.5781 92.6906 58.8078C91.9154 58.0375 91.3006 57.123 90.8815 56.1164C90.4624 55.1098 90.2471 54.031 90.2481 52.9416C90.2471 51.8523 90.4624 50.7735 90.8815 49.7669C91.3006 48.7603 91.9154 47.8457 92.6906 47.0755C93.4659 46.3052 94.3864 45.6944 95.3995 45.278C96.4126 44.8615 97.4985 44.6477 98.5948 44.6487Z" fill="url(#paint0_linear_1802_481)"/>
<path d="M125.559 219.349C174.178 219.349 171.142 198.4 171.142 198.4L171.088 176.698H124.691V170.182H189.516C189.516 170.182 220.627 173.688 220.627 124.946C220.627 76.2042 193.472 77.9329 193.472 77.9329H177.266V100.55C177.266 100.55 178.14 127.53 150.545 127.53H104.528C104.528 127.53 78.6738 127.115 78.6738 152.357V194.092C78.6738 194.092 74.748 219.349 125.558 219.349H125.559ZM151.142 204.755C150.045 204.756 148.96 204.542 147.946 204.126C146.933 203.71 146.013 203.099 145.238 202.329C144.462 201.558 143.848 200.644 143.428 199.637C143.009 198.63 142.794 197.552 142.795 196.462C142.794 195.373 143.009 194.294 143.428 193.287C143.847 192.281 144.462 191.366 145.237 190.596C146.013 189.825 146.933 189.214 147.946 188.798C148.959 188.382 150.045 188.168 151.142 188.169C152.238 188.168 153.324 188.381 154.337 188.798C155.35 189.214 156.271 189.825 157.046 190.595C157.821 191.366 158.436 192.28 158.855 193.287C159.274 194.293 159.489 195.372 159.488 196.462C159.489 197.551 159.274 198.63 158.855 199.636C158.436 200.643 157.821 201.557 157.046 202.328C156.271 203.098 155.35 203.709 154.337 204.125C153.324 204.542 152.238 204.756 151.142 204.755Z" fill="url(#paint1_linear_1802_481)"/>
</g>
<defs>
<linearGradient id="paint0_linear_1802_481" x1="1869.59" y1="1732.65" x2="11299.9" y2="11129.5" gradientUnits="userSpaceOnUse">
<stop stop-color="#387EB8"/>
<stop offset="1" stop-color="#366994"/>
</linearGradient>
<linearGradient id="paint1_linear_1802_481" x1="2795.23" y1="2988.28" x2="12925.4" y2="12626.7" gradientUnits="userSpaceOnUse">
<stop stop-color="#FFE052"/>
<stop offset="1" stop-color="#FFC331"/>
</linearGradient>
<clipPath id="clip0_1802_481">
<rect width="192" height="190" fill="white" transform="translate(29 30)"/>
</clipPath>
</defs>
</svg>
