<svg width="250" height="250" viewBox="0 0 250 250" fill="none" xmlns="http://www.w3.org/2000/svg">
<g clip-path="url(#clip0_1809_373)">
<path d="M214.361 169.475C204.01 174.848 150.389 196.805 138.973 202.732C127.558 208.66 121.216 208.602 112.198 204.309C103.18 200.016 46.1179 177.061 35.8387 172.168C30.7018 169.723 28 167.658 28 165.709V146.184C28 146.184 102.288 130.078 114.281 125.793C126.274 121.508 130.435 121.353 140.64 125.076C150.847 128.801 211.874 139.766 221.961 143.445L221.956 162.693C221.957 164.624 219.63 166.741 214.361 169.475Z" fill="#912626"/>
<path d="M214.357 150.066C204.007 155.437 150.388 177.394 138.972 183.32C127.557 189.249 121.216 189.191 112.198 184.897C103.179 180.607 46.1195 157.649 35.8411 152.758C25.5627 147.865 25.3475 144.498 35.4441 140.56C45.5406 136.622 102.288 114.449 114.282 110.164C126.274 105.881 130.435 105.724 140.64 109.449C150.847 113.172 204.147 134.3 214.232 137.978C224.321 141.661 224.708 144.694 214.357 150.066Z" fill="#C6302B"/>
<path d="M214.361 137.883C204.01 143.257 150.389 165.213 138.973 171.142C127.558 177.067 121.216 177.01 112.198 172.717C103.179 168.426 46.1179 145.468 35.8387 140.575C30.7018 138.131 28 136.069 28 134.119V114.592C28 114.592 102.288 98.4867 114.281 94.2017C126.274 89.9166 130.435 89.7612 140.64 93.4848C150.848 97.2085 211.875 108.171 221.961 111.851L221.956 131.102C221.957 133.031 219.63 135.149 214.361 137.883Z" fill="#912626"/>
<path d="M214.357 118.474C204.007 123.846 150.388 145.802 138.972 151.731C127.557 157.657 121.216 157.599 112.198 153.305C103.179 149.015 46.1195 126.057 35.8411 121.166C25.5627 116.274 25.3475 112.906 35.4441 108.967C45.5406 105.031 102.288 82.8571 114.282 78.5728C126.274 74.2885 130.435 74.1331 140.64 77.8567C150.847 81.5797 204.147 102.706 214.232 106.386C224.321 110.068 224.708 113.102 214.357 118.474Z" fill="#C6302B"/>
<path d="M214.361 105.12C204.01 110.492 150.389 132.45 138.973 138.379C127.558 144.305 121.216 144.247 112.198 139.954C103.179 135.663 46.1179 112.705 35.8387 107.814C30.7018 105.367 28 103.305 28 101.356V81.8287C28 81.8287 102.288 65.7245 114.281 61.4401C126.274 57.1543 130.435 57.0004 140.64 60.7233C150.848 64.447 211.875 75.4098 221.961 79.0897L221.956 98.3397C221.957 100.268 219.63 102.385 214.361 105.12Z" fill="#912626"/>
<path d="M214.357 85.7108C204.007 91.0832 150.387 113.04 138.972 118.967C127.557 124.893 121.215 124.835 112.198 120.544C103.18 116.25 46.1193 93.294 35.8417 88.4023C25.5626 83.5113 25.3481 80.1423 35.4439 76.2043C45.5405 72.2671 102.288 50.0963 114.282 45.8105C126.274 41.5254 130.435 41.3715 140.64 45.0951C150.847 48.8188 204.146 69.9453 214.232 73.6253C224.321 77.3044 224.708 80.3385 214.357 85.7108Z" fill="#C6302B"/>
<path d="M148.682 66.7167L132.006 68.4408L128.273 77.3867L122.244 67.4041L102.988 65.6807L117.356 60.5203L113.045 52.5991L126.497 57.8387L139.179 53.7038L135.751 61.8944L148.682 66.7167ZM127.278 110.117L96.1552 97.2614L140.751 90.4441L127.278 110.117ZM84.1289 71.6891C97.2932 71.6891 107.965 75.8089 107.965 80.89C107.965 85.9727 97.2932 90.0917 84.1289 90.0917C70.9646 90.0917 60.293 85.9719 60.293 80.89C60.293 75.8089 70.9646 71.6891 84.1289 71.6891Z" fill="white"/>
<path d="M168.39 69.1621L194.784 79.5492L168.413 89.9265L168.39 69.1621Z" fill="#621B1C"/>
<path d="M139.19 80.6652L168.39 69.1621L168.413 89.9264L165.55 91.0417L139.19 80.6652Z" fill="#9A2928"/>
</g>
<defs>
<clipPath id="clip0_1809_373">
<rect width="194" height="166" fill="white" transform="translate(28 42)"/>
</clipPath>
</defs>
</svg>
