<svg width="250" height="250" viewBox="0 0 250 250" fill="none" xmlns="http://www.w3.org/2000/svg">
<g clip-path="url(#clip0_1796_440)">
<path d="M56.3151 55.1887C74.0384 29.9554 109.046 22.4761 134.354 38.5186L178.799 66.7024C181.789 68.5723 184.578 70.7464 187.116 73.1898C189.657 75.6333 191.934 78.3335 193.911 81.246C195.888 84.1585 197.557 87.2675 198.891 90.5222C200.222 93.7785 201.21 97.1634 201.84 100.623C202.365 103.522 202.652 106.463 202.69 109.411C202.731 112.361 202.524 115.309 202.075 118.221C201.626 121.137 200.935 124.011 200.012 126.813C199.089 129.615 197.933 132.334 196.557 134.945C197.503 136.376 198.377 137.854 199.175 139.373C199.974 140.891 200.693 142.45 201.333 144.041C201.974 145.632 202.531 147.254 203.005 148.902C203.48 150.55 203.868 152.221 204.174 153.907C205.444 160.997 205.276 168.268 203.68 175.292C202.884 178.794 201.741 182.211 200.264 185.488C198.786 188.765 196.987 191.89 194.885 194.812C177.162 220.045 142.158 227.524 116.85 211.482L72.4049 183.415C69.4149 181.542 66.6319 179.365 64.0941 176.918C61.5567 174.473 59.2805 171.774 57.3022 168.862C55.3248 165.953 53.6563 162.844 52.3221 159.589C50.9879 156.337 49.9976 152.953 49.3639 149.495C48.8386 146.595 48.5552 143.657 48.5169 140.71C48.4787 137.763 48.6857 134.815 49.1379 131.903C49.5868 128.99 50.2778 126.119 51.2044 123.317C52.131 120.519 53.2869 117.8 54.6625 115.188C53.7168 113.759 52.8411 112.279 52.0419 110.761C51.2458 109.243 50.523 107.684 49.883 106.093C49.2429 104.502 48.6825 102.879 48.2049 101.231C47.7304 99.5862 47.3356 97.916 47.0267 96.23C46.3963 92.6932 46.1224 89.1024 46.2052 85.5117C46.288 81.921 46.7306 78.3493 47.5267 74.8441C48.3227 71.3422 49.4658 67.9258 50.9433 64.6488C52.4189 61.3713 54.2183 58.248 56.3151 55.325" fill="#FF3E00"/>
<path d="M138.697 197.252C142.176 198.151 145.772 198.517 149.361 198.336C152.95 198.152 156.49 197.429 159.859 196.184C163.228 194.94 166.387 193.193 169.227 191.002C172.065 188.81 174.551 186.2 176.599 183.263C177.863 181.504 178.946 179.628 179.831 177.657C180.719 175.687 181.407 173.633 181.885 171.527C182.359 169.42 182.626 167.271 182.674 165.113C182.722 162.955 182.553 160.796 182.171 158.67C182.111 158.324 182.041 157.979 181.964 157.637C181.891 157.291 181.808 156.949 181.719 156.61C181.633 156.268 181.537 155.928 181.436 155.589C181.337 155.253 181.229 154.917 181.117 154.585L180.28 152.04L177.997 153.735C176.688 154.686 175.338 155.583 173.953 156.42C172.568 157.259 171.147 158.039 169.695 158.755C168.247 159.475 166.763 160.134 165.257 160.727C163.75 161.322 162.219 161.852 160.665 162.318L158.961 162.809L159.114 164.504C159.196 165.658 159.076 166.818 158.758 167.93C158.602 168.488 158.395 169.027 158.143 169.547C157.892 170.066 157.595 170.564 157.258 171.033C156.639 171.918 155.889 172.703 155.032 173.362C154.179 174.021 153.227 174.548 152.211 174.922C151.195 175.295 150.132 175.511 149.049 175.565C147.97 175.622 146.887 175.511 145.839 175.238C145.597 175.175 145.362 175.102 145.126 175.02C144.89 174.937 144.658 174.849 144.432 174.747C144.203 174.649 143.98 174.541 143.757 174.424C143.537 174.31 143.324 174.186 143.114 174.053L98.7353 145.866C98.1913 145.527 97.6844 145.132 97.2228 144.687C96.7611 144.24 96.3503 143.749 95.9905 143.22C95.6307 142.691 95.3314 142.123 95.0894 141.531C94.8506 140.938 94.6723 140.323 94.5576 139.696C94.4462 139.052 94.3984 138.403 94.4143 137.75C94.4303 137.1 94.513 136.454 94.6595 135.817C94.8028 135.183 95.013 134.565 95.2836 133.969C95.5511 133.376 95.8823 132.812 96.2644 132.283C96.8821 131.399 97.6304 130.616 98.4869 129.957C99.3435 129.298 100.296 128.771 101.308 128.397C102.323 128.023 103.389 127.805 104.47 127.751C105.553 127.697 106.635 127.808 107.683 128.077C107.922 128.141 108.161 128.214 108.396 128.296C108.632 128.378 108.861 128.467 109.09 128.565C109.32 128.667 109.543 128.775 109.762 128.892C109.982 129.006 110.198 129.133 110.409 129.266L127.45 140.035C128.145 140.472 128.858 140.884 129.584 141.271C130.313 141.654 131.052 142.012 131.806 142.342C132.561 142.672 133.329 142.973 134.105 143.242C134.882 143.515 135.669 143.755 136.465 143.968C139.939 144.862 143.528 145.223 147.11 145.039C150.692 144.855 154.223 144.129 157.586 142.89C160.948 141.648 164.101 139.902 166.935 137.715C169.769 135.528 172.252 132.926 174.3 129.995C175.558 128.236 176.637 126.356 177.519 124.385C178.404 122.414 179.089 120.36 179.563 118.256C180.038 116.148 180.299 114 180.343 111.842C180.391 109.686 180.222 107.528 179.837 105.405C179.084 101.224 177.464 97.2456 175.08 93.7231C172.694 90.2006 169.596 87.2127 165.983 84.9507L121.467 56.7669C120.776 56.3296 120.069 55.9176 119.347 55.5309C118.624 55.1474 117.885 54.7893 117.137 54.4597C116.387 54.13 115.624 53.8297 114.851 53.5597C114.08 53.2871 113.297 53.0431 112.504 52.8307C109.027 51.9339 105.432 51.5662 101.846 51.7469C98.2577 51.9307 94.72 52.6533 91.3511 53.8988C87.9822 55.1411 84.8267 56.8905 81.9864 59.0804C79.1496 61.274 76.665 63.8847 74.6181 66.8228C73.3572 68.5786 72.2713 70.4547 71.383 72.426C70.4946 74.3972 69.8068 76.4477 69.326 78.5552C68.8483 80.6628 68.5809 82.8115 68.5331 84.9697C68.4821 87.128 68.6477 89.2862 69.0298 91.4128C69.0967 91.7614 69.1667 92.11 69.2464 92.4554C69.3228 92.8009 69.4056 93.1463 69.4947 93.4886C69.5807 93.834 69.6762 94.1763 69.7749 94.5154C69.8736 94.8577 69.9755 95.1968 70.087 95.5327L70.9372 98.0776L73.2043 96.3821C74.5162 95.4218 75.8695 94.5218 77.2578 93.6756C78.6461 92.8326 80.0727 92.0466 81.5278 91.3208C84.4412 89.8744 87.4715 88.6743 90.5869 87.7333L92.2937 87.2421L92.1376 85.5465C92.0899 84.9666 92.093 84.3834 92.1472 83.8066C92.1981 83.2298 92.3032 82.6562 92.456 82.0953C92.6121 81.5375 92.8127 80.9892 93.0642 80.4663C93.3126 79.9402 93.6087 79.4395 93.9463 78.9641C94.5676 78.0955 95.3181 77.326 96.172 76.6822C97.0247 76.0355 97.9718 75.5225 98.9805 75.161C101.007 74.4292 103.21 74.3308 105.295 74.879C105.537 74.9423 105.776 75.0152 106.008 75.0945C106.244 75.1769 106.476 75.2688 106.705 75.367C106.931 75.4653 107.158 75.5762 107.377 75.6903C107.597 75.8075 107.813 75.9311 108.024 76.0642L152.485 104.201C153.026 104.54 153.532 104.936 153.991 105.379C154.449 105.823 154.863 106.314 155.223 106.84C155.58 107.37 155.882 107.933 156.124 108.523C156.366 109.116 156.545 109.728 156.659 110.355C156.771 110.998 156.818 111.651 156.803 112.304C156.764 113.611 156.469 114.898 155.933 116.091C155.663 116.686 155.336 117.252 154.956 117.784C154.341 118.658 153.596 119.438 152.746 120.091C151.897 120.747 150.954 121.271 149.947 121.644C147.923 122.393 145.718 122.513 143.623 121.989C143.384 121.923 143.145 121.85 142.91 121.767C142.677 121.685 142.445 121.593 142.216 121.495C141.987 121.396 141.763 121.288 141.544 121.172C141.324 121.058 141.108 120.934 140.897 120.801L123.856 110.051C123.158 109.607 122.448 109.189 121.719 108.802C120.993 108.412 120.251 108.054 119.493 107.722C118.738 107.392 117.97 107.092 117.191 106.821C116.411 106.549 115.621 106.308 114.822 106.099C111.345 105.199 107.753 104.831 104.164 105.009C100.576 105.189 97.0381 105.912 93.6692 107.154C90.3035 108.397 87.1448 110.143 84.3077 112.336C81.4673 114.526 78.9837 117.134 76.9362 120.072C75.6753 121.831 74.5926 123.707 73.7042 125.678C72.8159 127.648 72.1268 129.702 71.6472 131.808C71.1696 133.912 70.9021 136.061 70.8512 138.219C70.8002 140.38 70.969 142.538 71.3479 144.662C71.7234 146.747 72.3157 148.787 73.1152 150.75C73.914 152.713 74.9172 154.588 76.1083 156.344C77.296 158.099 78.6652 159.728 80.1937 161.202C81.7221 162.676 83.4002 163.988 85.2024 165.116L129.667 193.3C130.364 193.74 131.077 194.155 131.803 194.542C132.532 194.929 133.274 195.287 134.032 195.616C134.787 195.949 135.554 196.25 136.334 196.523C137.111 196.795 137.901 197.039 138.697 197.252Z" fill="white"/>
</g>
<defs>
<clipPath id="clip0_1796_440">
<rect width="159" height="190" fill="white" transform="matrix(-1 0 0 1 205 30)"/>
</clipPath>
</defs>
</svg>
