<svg width="250" height="250" viewBox="0 0 250 250" fill="none" xmlns="http://www.w3.org/2000/svg">
<g clip-path="url(#clip0_1802_462)">
<path d="M125 62C97.0102 62 79.5175 75.8892 72.5194 103.665C83.0166 89.7757 95.2619 84.5693 109.256 88.0403C117.241 90.0207 122.947 95.7718 129.265 102.135C139.555 112.501 151.465 124.499 177.48 124.499C205.468 124.499 222.963 110.61 229.958 82.8312C219.464 96.7203 207.218 101.929 193.222 98.4584C185.24 96.478 179.533 90.7269 173.215 84.3634C162.925 73.9973 151.013 62 125 62ZM72.5194 124.499C44.5322 124.499 27.037 138.388 20.0415 166.166C30.536 152.277 42.7814 147.068 56.7776 150.542C64.7601 152.525 70.4667 158.273 76.785 164.634C87.0747 175 98.9867 187 125 187C152.99 187 170.482 173.111 177.48 145.332C166.983 159.222 154.738 164.431 140.744 160.957C132.759 158.979 127.053 153.226 120.734 146.865C110.445 136.499 98.5352 124.499 72.5194 124.499Z" fill="#06B6D4"/>
</g>
<defs>
<clipPath id="clip0_1802_462">
<rect width="210" height="125" fill="white" transform="translate(20 62)"/>
</clipPath>
</defs>
</svg>
