<svg width="250" height="250" viewBox="0 0 250 250" fill="none" xmlns="http://www.w3.org/2000/svg">
<g clip-path="url(#clip0_1809_395)">
<path d="M222.722 124.757C222.722 178.745 178.955 222.512 124.965 222.512C70.973 222.512 27.2068 178.745 27.2068 124.757C27.2068 70.767 70.9745 27 124.965 27C178.956 27 222.722 70.767 222.722 124.757Z" fill="#DD4814"/>
<path d="M58.4924 111.703C51.281 111.703 45.4385 117.546 45.4385 124.757C45.4385 131.965 51.281 137.808 58.4924 137.808C65.7007 137.808 71.5432 131.965 71.5432 124.757C71.5432 117.546 65.7007 111.703 58.4924 111.703ZM151.68 171.022C145.438 174.628 143.297 182.606 146.903 188.845C150.505 195.088 158.483 197.228 164.726 193.623C170.968 190.021 173.109 182.043 169.503 175.799C165.901 169.561 157.919 167.421 151.68 171.022ZM86.8427 124.757C86.8427 111.859 93.2495 100.464 103.052 93.5641L93.5098 77.5824C82.0912 85.2157 73.5943 96.8792 70.0633 110.54C74.1839 113.901 76.8207 119.02 76.8207 124.756C76.8207 130.49 74.1839 135.608 70.0633 138.97C73.5897 152.634 82.0867 164.299 93.5098 171.933L103.052 155.946C93.2495 149.05 86.8427 137.656 86.8427 124.757ZM124.965 86.6314C144.881 86.6314 161.221 101.901 162.936 121.375L181.533 121.101C180.619 106.724 174.338 93.8175 164.688 84.3268C159.725 86.2018 153.992 85.9147 149.038 83.059C144.075 80.1948 140.962 75.3629 140.112 70.1184C135.178 68.7531 130.083 68.0603 124.964 68.0588C116.248 68.0499 107.648 70.058 99.8369 73.9258L108.906 90.1777C113.935 87.8367 119.417 86.6262 124.965 86.6314ZM124.965 162.88C119.417 162.885 113.936 161.674 108.906 159.334L99.8377 175.584C107.648 179.456 116.248 181.466 124.965 181.457C130.085 181.456 135.18 180.761 140.113 179.392C140.963 174.148 144.076 169.32 149.038 166.452C153.996 163.59 159.726 163.309 164.688 165.184C174.338 155.693 180.619 142.786 181.534 128.409L162.932 128.135C161.221 147.615 144.882 162.88 124.965 162.88ZM151.676 78.4843C157.919 82.0889 165.897 79.9543 169.499 73.7114C173.105 67.4685 170.969 59.49 164.726 55.8839C158.483 52.2824 150.505 54.4215 146.898 60.6644C143.298 66.9043 145.438 74.8821 151.676 78.4843Z" fill="white"/>
</g>
<defs>
<clipPath id="clip0_1809_395">
<rect width="196" height="196" fill="white" transform="translate(27 27)"/>
</clipPath>
</defs>
</svg>
