<svg width="100" height="100" viewBox="0 0 100 100" fill="none" xmlns="http://www.w3.org/2000/svg">
<g clip-path="url(#clip0_1896_372)">
<path d="M88.75 79.1667C87.406 80.4914 85.7172 81.4123 83.8758 81.8248C82.0343 82.2373 80.114 82.1248 78.3333 81.5L68.5417 91.2917C68.4095 91.429 68.251 91.5383 68.0755 91.6129C67.9001 91.6876 67.7115 91.7261 67.5208 91.7261C67.3302 91.7261 67.1415 91.6876 66.9661 91.6129C66.7907 91.5383 66.6322 91.429 66.5 91.2917L62.3333 87.125C62.0756 86.8475 61.9324 86.4829 61.9324 86.1042C61.9324 85.7255 62.0756 85.3608 62.3333 85.0833L72.1667 75.2917C71.4822 73.3921 71.3913 71.3293 71.906 69.3769C72.4208 67.4245 73.5169 65.6746 75.049 64.3595C76.5811 63.0443 78.4768 62.226 80.4846 62.0129C82.4925 61.7999 84.5177 62.2023 86.2917 63.1667L79.6667 70L83.8333 74.1667L90.5833 67.4167C91.5823 69.3118 91.9434 71.4786 91.6132 73.5954C91.2829 75.7121 90.2788 77.6659 88.75 79.1667ZM91.6667 33.3333V57.3333C88.5873 55.2638 84.9601 54.1612 81.25 54.1667C79.4297 54.1723 77.6196 54.4389 75.875 54.9583V38.7083H69.4167V58.3333C67.2506 60.0957 65.5055 62.3196 64.3088 64.8427C63.1122 67.3657 62.4942 70.1242 62.5 72.9167C62.4573 73.6105 62.4573 74.3062 62.5 75H16.6667C14.4565 75 12.3369 74.122 10.7741 72.5592C9.21131 70.9964 8.33334 68.8768 8.33334 66.6667V33.3333C8.33334 31.1232 9.21131 29.0036 10.7741 27.4408C12.3369 25.878 14.4565 25 16.6667 25H83.3333C85.5435 25 87.6631 25.878 89.2259 27.4408C90.7887 29.0036 91.6667 31.1232 91.6667 33.3333ZM45.8333 62.5L37.875 38.625H29.1667L21.5417 62.5H28.625L29.8333 58.0417H37.5L38.7083 62.5H45.8333ZM65.7083 46.2917C65.7764 45.2418 65.6056 44.1902 65.2086 43.2159C64.8117 42.2416 64.199 41.37 63.4167 40.6667C61.4727 39.2289 59.0783 38.5342 56.6667 38.7083H48.3333V62.5H54.75V54.625H56.5833C58.0041 54.6493 59.417 54.4091 60.75 53.9167C61.8052 53.5206 62.7589 52.8943 63.5417 52.0833C64.238 51.3201 64.751 50.4081 65.0417 49.4167C65.4043 48.4135 65.6013 47.3581 65.625 46.2917H65.7083ZM35.2917 48.875L34.7917 47.0417L34.1667 44.625C34.1667 43.75 33.8333 43.0833 33.7083 42.5417C33.6049 43.2152 33.4658 43.8828 33.2917 44.5417C33.2917 45.3333 32.9583 46.125 32.75 46.9167C32.5417 47.7083 32.4167 48.3333 32.25 48.875L31.25 52.75H36.2083L35.2917 48.875ZM58.5833 44.7083C58.308 44.4465 57.9792 44.2476 57.6195 44.1253C57.2598 44.003 56.8778 43.9603 56.5 44H54.8333V49.4583H56.125C56.6537 49.4709 57.1791 49.3715 57.6667 49.1667C58.1254 48.9813 58.5174 48.6618 58.7917 48.25C59.1136 47.7246 59.2731 47.1158 59.25 46.5C59.2501 46.1383 59.1675 45.7814 59.0087 45.4564C58.8498 45.1315 58.6188 44.8471 58.3333 44.625L58.5833 44.7083Z" fill="#E2E5E7"/>
<mask id="mask0_1896_372" style="mask-type:alpha" maskUnits="userSpaceOnUse" x="8" y="25" width="84" height="67">
<path d="M88.7502 79.1667C87.4062 80.4914 85.7174 81.4123 83.8759 81.8248C82.0345 82.2373 80.1142 82.1248 78.3335 81.5L68.5418 91.2917C68.4097 91.429 68.2511 91.5383 68.0757 91.6129C67.9003 91.6876 67.7116 91.7261 67.521 91.7261C67.3304 91.7261 67.1417 91.6876 66.9663 91.6129C66.7909 91.5383 66.6323 91.429 66.5002 91.2917L62.3335 87.125C62.0758 86.8475 61.9325 86.4829 61.9325 86.1042C61.9325 85.7255 62.0758 85.3608 62.3335 85.0833L72.1668 75.2917C71.4823 73.3921 71.3914 71.3293 71.9062 69.3769C72.4209 67.4245 73.5171 65.6746 75.0491 64.3595C76.5812 63.0443 78.4769 62.226 80.4848 62.0129C82.4927 61.7999 84.5179 62.2023 86.2918 63.1667L79.6668 70L83.8335 74.1667L90.5835 67.4167C91.5825 69.3118 91.9436 71.4786 91.6133 73.5954C91.2831 75.7121 90.279 77.6659 88.7502 79.1667ZM91.6668 33.3333V57.3333C88.5875 55.2638 84.9603 54.1612 81.2502 54.1667C79.4299 54.1723 77.6198 54.4389 75.8752 54.9583V38.7083H69.4168V58.3333C67.2507 60.0957 65.5056 62.3196 64.309 64.8427C63.1123 67.3657 62.4943 70.1242 62.5002 72.9167C62.4575 73.6105 62.4575 74.3062 62.5002 75H16.6668C14.4567 75 12.3371 74.122 10.7743 72.5592C9.21147 70.9964 8.3335 68.8768 8.3335 66.6667V33.3333C8.3335 31.1232 9.21147 29.0036 10.7743 27.4408C12.3371 25.878 14.4567 25 16.6668 25H83.3335C85.5436 25 87.6632 25.878 89.2261 27.4408C90.7888 29.0036 91.6668 31.1232 91.6668 33.3333ZM45.8335 62.5L37.8752 38.625H29.1668L21.5418 62.5H28.6252L29.8335 58.0417H37.5002L38.7085 62.5H45.8335ZM65.7085 46.2917C65.7766 45.2418 65.6057 44.1902 65.2088 43.2159C64.8119 42.2416 64.1992 41.37 63.4168 40.6667C61.4728 39.2289 59.0785 38.5342 56.6668 38.7083H48.3335V62.5H54.7502V54.625H56.5835C58.0043 54.6493 59.4172 54.4091 60.7502 53.9167C61.8054 53.5206 62.7591 52.8943 63.5418 52.0833C64.2381 51.3201 64.7512 50.4081 65.0418 49.4167C65.4045 48.4135 65.6015 47.3581 65.6252 46.2917H65.7085ZM35.2918 48.875L34.7918 47.0417L34.1668 44.625C34.1668 43.75 33.8335 43.0833 33.7085 42.5417C33.605 43.2152 33.4659 43.8828 33.2918 44.5417C33.2918 45.3333 32.9585 46.125 32.7502 46.9167C32.5418 47.7083 32.4168 48.3333 32.2502 48.875L31.2502 52.75H36.2085L35.2918 48.875ZM58.5835 44.7083C58.3082 44.4465 57.9793 44.2476 57.6196 44.1253C57.2599 44.003 56.878 43.9603 56.5002 44H54.8335V49.4583H56.1252C56.6539 49.4709 57.1793 49.3715 57.6668 49.1667C58.1255 48.9813 58.5176 48.6618 58.7918 48.25C59.1138 47.7246 59.2733 47.1158 59.2502 46.5C59.2502 46.1383 59.1677 45.7814 59.0088 45.4564C58.85 45.1315 58.619 44.8471 58.3335 44.625L58.5835 44.7083Z" fill="#E2E5E7"/>
</mask>
<g mask="url(#mask0_1896_372)">
<path d="M100 90.25C100 91.7625 99.2687 93 98.375 93H62.625C61.7312 93 61 91.7625 61 90.25L65.5 69C65.5 67.4875 69.6062 60.5 70.5 60.5L98.375 60C99.2687 60 100 61.2375 100 62.75V90.25Z" fill="#39965F"/>
</g>
</g>
<defs>
<clipPath id="clip0_1896_372">
<rect width="100" height="100" fill="white"/>
</clipPath>
</defs>
</svg>
