<svg width="100" height="100" viewBox="0 0 100 100" fill="none" xmlns="http://www.w3.org/2000/svg">
<path d="M25 0C21.5625 0 18.75 2.8125 18.75 6.25V93.75C18.75 97.1875 21.5625 100 25 100H87.5C90.9375 100 93.75 97.1875 93.75 93.75V25L68.75 0H25Z" fill="#E2E5E7"/>
<path d="M75 25H93.75L68.75 0V18.75C68.75 22.1875 71.5625 25 75 25Z" fill="#B0B7BD"/>
<path d="M93.75 43.75L75 25H93.75V43.75Z" fill="#CAD1D8"/>
<path d="M81.25 81.25C81.25 82.9688 79.8438 84.375 78.125 84.375H9.375C7.65625 84.375 6.25 82.9688 6.25 81.25V50C6.25 48.2812 7.65625 46.875 9.375 46.875H78.125C79.8438 46.875 81.25 48.2812 81.25 50V81.25Z" fill="#39965F"/>
<path d="M19.1656 61.4594C19.7406 56.6094 27.0594 55.7376 30.5063 58.3876C32.2063 59.7594 30.4094 61.9344 28.9062 60.8344C27.0594 59.6626 22.8594 59.1126 22.3344 61.7063C21.6594 65.8063 32.5312 63.4594 32.3531 70.1063C32.1781 76.4532 22.9844 76.6001 19.5344 73.7532C18.7094 73.0782 18.7344 71.9813 19.1875 71.3032C19.8344 70.6563 20.5594 70.4313 21.4094 71.1313C23.4594 72.5282 28.7312 73.5782 29.1062 70.0282C28.7844 66.3344 18.3906 68.5563 19.1656 61.4594Z" fill="white"/>
<path d="M51.8531 72.1532L52.2531 72.6251C53.9 74.1251 51.7531 76.5751 50.0781 75.0001L49.2312 74.3282C47.9312 75.2251 46.4094 75.6532 44.3844 75.6532C39.9875 75.6532 34.9625 72.6251 34.9625 66.4782C34.9625 60.3314 39.9594 57.2095 44.3844 57.2095C49.0281 57.2095 53.5781 60.3314 53.5781 66.4782C53.5781 68.8532 52.975 70.6064 51.8531 72.1532ZM50.35 66.4782C50.35 62.5064 47.2281 60.4845 44.3812 60.4845C41.3094 60.4845 38.2844 62.5032 38.2844 66.4782C38.2844 69.5064 40.8562 72.3782 44.3812 72.3782C45.2781 72.3782 46.1531 72.1532 47.0281 71.9282L44.1812 69.3032C42.8562 67.7032 44.9562 65.4282 46.6281 66.9032L49.4531 69.7251C50.075 68.8532 50.35 67.7782 50.35 66.4782Z" fill="white"/>
<path d="M57.2594 59.2093C57.2594 58.3843 57.9594 57.6843 58.8344 57.6843C59.6344 57.6843 60.3094 58.3875 60.3094 59.2093V71.7281H67.1062C69.5531 71.7281 69.6062 75 67.1062 75H58.8375C57.9625 75 57.2625 74.3781 57.2625 73.4781V59.2093H57.2594Z" fill="white"/>
<path d="M78.125 84.375H18.75V87.5H78.125C79.8438 87.5 81.25 86.0938 81.25 84.375V81.25C81.25 82.9688 79.8438 84.375 78.125 84.375Z" fill="#CAD1D8"/>
</svg>
