<svg width="100" height="100" viewBox="0 0 100 100" fill="none" xmlns="http://www.w3.org/2000/svg">
<path opacity="0.6" d="M48.6113 8.33325H34.7222C27.0516 8.33325 20.8333 14.5515 20.8333 22.2221C20.8333 29.8927 27.0516 36.111 34.7222 36.111H48.6113V8.33325Z" fill="#39965F"/>
<path opacity="0.4" d="M48.6113 36.1104H34.7222C27.0516 36.1104 20.8333 42.3287 20.8333 49.9991C20.8333 57.6699 27.0516 63.8883 34.7222 63.8883H48.6113V36.1104Z" fill="#E2E5E7"/>
<path d="M76.3863 49.9991C76.3863 57.6699 70.1679 63.8883 62.4971 63.8883C54.8267 63.8883 48.6083 57.6699 48.6083 49.9991C48.6083 42.3287 54.8267 36.1104 62.4971 36.1104C70.1679 36.1104 76.3863 42.3287 76.3863 49.9991Z" fill="#39965F"/>
<path opacity="0.2" d="M34.7222 63.8896H48.6113V77.7784C48.6113 85.4492 42.3929 91.6676 34.7222 91.6676C27.0516 91.6676 20.8333 85.4492 20.8333 77.7784C20.8333 70.108 27.0516 63.8896 34.7222 63.8896Z" fill="#E2E5E7"/>
<path opacity="0.8" d="M48.6083 8.33325H62.4971C70.1679 8.33325 76.3863 14.5515 76.3863 22.2221C76.3863 29.8927 70.1679 36.111 62.4971 36.111H48.6083V8.33325Z" fill="#39965F"/>
</svg>
