<svg width="100" height="100" viewBox="0 0 100 100" fill="none" xmlns="http://www.w3.org/2000/svg">
<path fill-rule="evenodd" clip-rule="evenodd" d="M41.4316 5.20825H41.6667C43.3925 5.20825 44.7917 6.60738 44.7917 8.33325C44.7917 10.0591 43.3925 11.4583 41.6667 11.4583C33.7216 11.4583 28.0771 11.4649 23.7952 12.0406C19.6032 12.6042 17.188 13.6611 15.4246 15.4245C13.6612 17.1879 12.6043 19.6031 12.0407 23.7951C11.465 28.077 11.4583 33.7215 11.4583 41.6666C11.4583 43.3924 10.0592 44.7916 8.33335 44.7916C6.60747 44.7916 5.20835 43.3924 5.20835 41.6666V41.4315C5.20826 33.7742 5.20822 27.709 5.84643 22.9623C6.50318 18.0773 7.88701 14.1233 11.0052 11.0051C14.1234 7.88692 18.0773 6.50309 22.9624 5.84634C27.7091 5.20813 33.7743 5.20817 41.4316 5.20825ZM76.205 12.0406C71.9229 11.4649 66.2783 11.4583 58.3333 11.4583C56.6075 11.4583 55.2083 10.0591 55.2083 8.33325C55.2083 6.60738 56.6075 5.20825 58.3333 5.20825H58.5683C66.2258 5.20817 72.2908 5.20813 77.0375 5.84634C81.9225 6.50309 85.8767 7.88692 88.995 11.0051C92.1129 14.1233 93.4967 18.0773 94.1538 22.9623C94.7917 27.709 94.7917 33.7742 94.7917 41.4315V41.6666C94.7917 43.3924 93.3925 44.7916 91.6667 44.7916C89.9408 44.7916 88.5417 43.3924 88.5417 41.6666C88.5417 33.7215 88.535 28.077 87.9592 23.7951C87.3958 19.6031 86.3388 17.1879 84.5754 15.4245C82.8121 13.6611 80.3967 12.6042 76.205 12.0406ZM8.33335 55.2083C10.0592 55.2083 11.4583 56.6074 11.4583 58.3332C11.4583 66.2783 11.465 71.9228 12.0407 76.2049C12.6043 80.3966 13.6612 82.812 15.4246 84.5753C17.188 86.3387 19.6032 87.3958 23.7952 87.9591C28.0771 88.5349 33.7216 88.5416 41.6667 88.5416C43.3925 88.5416 44.7917 89.9408 44.7917 91.6666C44.7917 93.3924 43.3925 94.7916 41.6667 94.7916H41.4316C33.7743 94.7916 27.7091 94.7916 22.9624 94.1537C18.0773 93.4966 14.1234 92.1128 11.0052 88.9949C7.88701 85.8766 6.50318 81.9224 5.84643 77.0374C5.20822 72.2907 5.20826 66.2257 5.20835 58.5683V58.3332C5.20835 56.6074 6.60747 55.2083 8.33335 55.2083ZM91.6667 55.2083C93.3925 55.2083 94.7917 56.6074 94.7917 58.3332V58.5683C94.7917 66.2257 94.7917 72.2907 94.1538 77.0374C93.4967 81.9224 92.1129 85.8766 88.995 88.9949C85.8767 92.1128 81.9225 93.4966 77.0375 94.1537C72.2908 94.7916 66.2258 94.7916 58.5683 94.7916H58.3333C56.6075 94.7916 55.2083 93.3924 55.2083 91.6666C55.2083 89.9408 56.6075 88.5416 58.3333 88.5416C66.2783 88.5416 71.9229 88.5349 76.205 87.9591C80.3967 87.3958 82.8121 86.3387 84.5754 84.5753C86.3388 82.812 87.3958 80.3966 87.9592 76.2049C88.535 71.9228 88.5417 66.2783 88.5417 58.3332C88.5417 56.6074 89.9408 55.2083 91.6667 55.2083Z" fill="#39965F"/>
<path d="M41.6667 22.9167H58.3333C66.19 22.9167 70.1183 22.9167 72.5592 25.3575C74.8508 27.649 74.9908 31.2517 74.9996 38.1854L75 50.0697V60.4167C75 68.2734 75 72.2017 72.5592 74.6426C70.1183 77.0834 66.19 77.0834 58.3333 77.0834H41.6667C33.8099 77.0834 29.8815 77.0834 27.4408 74.6426C25 72.2017 25 68.2734 25 60.4167V50.0697L25.0005 38.1855C25.0091 31.2517 25.1493 27.649 27.4408 25.3575C29.8815 22.9167 33.8099 22.9167 41.6667 22.9167Z" fill="#E2E5E7"/>
<path d="M76.5387 38.7498C76.0471 38.5606 75.5337 38.372 74.9996 38.1852C67.3612 34.9415 46.6675 30.4002 25.0005 38.1853C24.4661 38.372 23.9532 38.5607 23.4616 38.7498C20.5771 39.8592 18.4358 40.9815 16.986 41.8513C16.2614 42.2863 15.7101 42.6575 15.3256 42.9321C15.1334 43.0696 14.9829 43.1825 14.8732 43.2675C14.8184 43.3096 14.7738 43.345 14.7394 43.3725L14.6952 43.4083L14.6788 43.4221L14.672 43.4275L14.6662 43.4325C13.3403 44.5375 13.1612 46.5079 14.266 47.8338C15.367 49.1546 17.3273 49.3375 18.653 48.2458L18.6962 48.2117C18.7445 48.1746 18.8316 48.1083 18.9584 48.0179C19.2119 47.8367 19.6242 47.5571 20.2016 47.2108C21.356 46.5179 23.173 45.5571 25.7052 44.5833C30.762 42.6383 38.715 40.6248 50 40.6248C61.2854 40.6248 69.2383 42.6383 74.295 44.5833C76.8271 45.5571 78.6442 46.5179 79.7983 47.2108C80.3758 47.5571 80.7883 47.8367 81.0417 48.0179C81.1687 48.1083 81.2558 48.1746 81.3037 48.2117L81.3471 48.2458C82.6729 49.3375 84.6333 49.1546 85.7342 47.8338C86.8392 46.5079 86.66 44.5375 85.3342 43.4325L83.3333 45.8329C85.3342 43.4325 85.3283 43.4275 85.3283 43.4275L85.3212 43.4221L85.305 43.4083L85.2608 43.3725C85.2262 43.345 85.1817 43.3096 85.1271 43.2675C85.0171 43.1825 84.8667 43.0696 84.6746 42.9321C84.29 42.6575 83.7387 42.2863 83.0142 41.8513C81.5646 40.9815 79.4229 39.8592 76.5387 38.7498Z" fill="#39965F"/>
</svg>
