<svg width="100" height="100" viewBox="0 0 100 100" fill="none" xmlns="http://www.w3.org/2000/svg">
<path d="M20.3242 57.0658C12.3303 49.0716 8.33333 45.0749 8.33333 40.108C8.33333 35.1412 12.3303 31.1443 20.3242 23.1504L23.1505 20.3241C31.1443 12.3302 35.1413 8.33325 40.108 8.33325C45.075 8.33325 49.0717 12.3302 57.0658 20.3241L79.6758 42.9341C87.6696 50.9282 91.6667 54.9249 91.6667 59.892C91.6667 64.8587 87.6696 68.8557 79.6758 76.8495L76.8496 79.6758C68.8558 87.6695 64.8587 91.6666 59.8921 91.6666C54.925 91.6666 50.9283 87.6695 42.9342 79.6758L20.3242 57.0658Z" fill="#E2E5E7"/>
<path d="M39.4897 25.3623C40.71 24.1419 40.71 22.1632 39.4897 20.9429C38.2692 19.7225 36.2906 19.7225 35.0702 20.9429L20.9389 35.0742C19.7185 36.2946 19.7185 38.2732 20.9389 39.4936C22.1593 40.714 24.1379 40.714 25.3583 39.4936L39.4897 25.3623Z" fill="#39965F"/>
<path d="M69.7817 69.7867C72.1229 67.4454 72.1229 63.6496 69.7817 61.3079C67.4404 58.9667 63.6442 58.9667 61.3029 61.3079C58.9617 63.6496 58.9617 67.4454 61.3029 69.7867C63.6442 72.1284 67.4404 72.1284 69.7817 69.7867Z" fill="#39965F"/>
<path fill-rule="evenodd" clip-rule="evenodd" d="M67.7525 7.80968C68.0421 6.10822 69.6558 4.96356 71.3575 5.25302C84.6892 7.52102 94.7917 19.2549 94.7917 33.3338C94.7917 34.4898 94.1533 35.5515 93.1325 36.0937C92.1112 36.636 90.8742 36.5702 89.9167 35.9227L83.6667 31.6976C82.2367 30.731 81.8612 28.7883 82.8279 27.3585C83.7942 25.9287 85.7371 25.5532 87.1667 26.5198L87.5817 26.8003C85.1775 18.8446 78.4996 12.8078 70.3092 11.4145C68.6079 11.1251 67.4633 9.5111 67.7525 7.80968Z" fill="#39965F"/>
<path fill-rule="evenodd" clip-rule="evenodd" d="M32.2474 92.1913C31.958 93.893 30.344 95.0375 28.6426 94.748C15.3108 92.48 5.20833 80.7459 5.20833 66.6671C5.20833 65.5113 5.84662 64.4496 6.86766 63.9071C7.8887 63.365 9.1257 63.4309 10.0835 64.0784L16.3335 68.3034C17.7633 69.27 18.1388 71.2125 17.1722 72.6425C16.2057 74.0721 14.263 74.448 12.8332 73.4813L12.4182 73.2009C14.8223 81.1563 21.5003 87.193 29.6907 88.5863C31.3922 88.8759 32.5369 90.49 32.2474 92.1913Z" fill="#39965F"/>
</svg>
