<svg width="100" height="100" viewBox="0 0 100 100" fill="none" xmlns="http://www.w3.org/2000/svg">
<g clip-path="url(#clip0_1896_378)">
<path d="M9.11776 53.9758C6.15468 53.9758 3.28177 53.0213 1.41158 52.0621L0 57.8063C1.73183 58.764 5.1986 59.675 8.7089 59.675C17.1442 59.675 21.11 55.2988 21.11 50.1468C21.11 45.8157 18.5558 42.9894 13.1318 40.9824C9.1644 39.476 7.43257 38.6116 7.43257 36.6513C7.43257 35.0547 8.89079 33.6866 11.9005 33.6866C14.9102 33.6866 17.0991 34.5541 18.3288 35.1464L19.8803 29.539C18.0552 28.7181 15.5025 27.989 12.0373 27.989C4.78818 27.989 0.410416 31.9999 0.410416 37.2436C0.410416 41.7115 3.73883 44.5378 8.84571 46.3163C12.5379 47.6392 13.9977 48.7337 13.9977 50.6458C13.9977 52.6544 12.3094 53.9758 9.11776 53.9758Z" fill="#E2E5E7"/>
<path d="M45.4116 53.5204H32.7835V46.2262H44.0886V40.5721H32.7835V34.1889H44.7742V28.4897H25.8064V59.2196H45.4116V53.5204Z" fill="#E2E5E7"/>
<path d="M68.9094 61.5514C73.2235 61.5514 77.1768 59.9984 80.255 57.4271L86.3754 63.1387C86.3661 63.7761 86.5977 64.4072 87.0983 64.8752L96.0793 73.2607C96.5286 73.6805 97.0975 73.8872 97.6681 73.8872C98.2915 73.8872 98.9149 73.6385 99.3735 73.1441C100.252 72.2051 100.201 70.7252 99.2616 69.8484L90.2806 61.4644C89.78 60.9964 89.1302 60.8114 88.499 60.8627L82.4594 55.2273C85.0571 52.1445 86.6319 48.1678 86.6319 43.8289C86.6319 34.0582 78.6848 26.1111 68.9141 26.1111C59.1434 26.1111 51.1916 34.0613 51.1916 43.8305C51.1901 53.6043 59.1387 61.5514 68.9094 61.5514ZM68.9094 30.7765C76.1088 30.7765 81.965 36.6327 81.965 43.8305C81.965 51.0283 76.1057 56.8861 68.9094 56.8861C61.7132 56.8861 55.8539 51.0283 55.8539 43.8305C55.8539 36.6327 61.7101 30.7765 68.9094 30.7765Z" fill="#39965F"/>
</g>
<defs>
<clipPath id="clip0_1896_378">
<rect width="100" height="100" fill="white"/>
</clipPath>
</defs>
</svg>
