<svg width="100" height="100" viewBox="0 0 100 100" fill="none" xmlns="http://www.w3.org/2000/svg">
<g clip-path="url(#clip0_1896_355)">
<path d="M65.8809 42.8131C70.6094 42.8131 74.4594 38.9675 74.4594 34.2352C74.4594 29.505 70.6094 25.6592 65.8809 25.6592C61.1493 25.6592 57.3063 29.5048 57.3063 34.2352C57.3063 38.9675 61.1493 42.8131 65.8809 42.8131Z" fill="#39965F"/>
<path d="M18.7155 67.7098C18.0315 67.9085 17.3185 68.0079 16.5989 68.0079C15.9318 68.0079 15.2642 67.9214 14.5934 67.7409C13.105 67.3351 11.8063 66.4984 10.8087 65.3425H8.28501C7.42153 65.3425 6.72184 64.6389 6.72184 63.7759V58.523C5.43842 56.1668 5.52697 53.4198 6.72184 51.2066V47.4913C5.53282 45.2847 5.44548 42.5472 6.72184 40.1829V15.0279C6.72184 14.165 7.42153 13.4613 8.28501 13.4613H45.2662C46.0097 12.9694 46.8169 12.5627 47.7098 12.3231C48.4095 12.1374 49.1354 12.0399 49.8656 12.0399C51.1577 12.0399 52.4314 12.3413 53.5678 12.9093C53.7273 10.3707 55.0529 8.16308 56.9809 6.7417H8.28501C3.71914 6.7417 0 10.4572 0 15.0279V63.7759C0 68.3462 3.71914 72.0621 8.28501 72.0621H21.6956C20.2428 71.0185 19.1582 69.4947 18.7155 67.7098Z" fill="#E2E5E7"/>
<path d="M91.7158 6.7417H74.7817C76.7124 8.16308 78.0353 10.3743 78.1904 12.9127C79.3371 12.3415 80.6076 12.0401 81.8971 12.0401C83.545 12.0401 85.1114 12.5775 86.4531 13.4615H91.7158C92.5785 13.4615 93.2794 14.165 93.2794 15.0281V23.4983C94.2304 25.3565 94.4801 27.4536 93.94 29.44C93.7832 30.0277 93.5523 30.58 93.2794 31.109V37.3928C94.4541 39.7077 94.5396 42.5089 93.2794 44.9656V63.7761C93.2794 64.6389 92.5785 65.3427 91.7158 65.3427H47.8197C46.8298 66.4887 45.5044 67.3419 44.0264 67.7425C43.3745 67.9202 42.7034 68.0079 42.033 68.0079C41.3097 68.0079 40.6001 67.9071 39.9163 67.7112C39.8278 68.0517 39.7072 68.3791 39.5807 68.7012C38.8516 70.5167 37.4439 71.9756 35.6724 72.7947V77.2337C30.4006 77.8049 26.2706 82.2294 26.2706 87.6484V90.7356C26.2706 92.1278 27.4015 93.2581 28.7882 93.2581H71.2161C72.6028 93.2581 73.7323 92.128 73.7323 90.7356V87.6484C73.7323 82.2294 69.6033 77.8049 64.3317 77.2337V72.0621H91.716C96.2819 72.0621 100 68.3462 100 63.7759V15.0279C100 10.4572 96.2817 6.7417 91.7158 6.7417ZM68.6944 87.6484V88.2152H31.3088V87.6484C31.3088 84.6247 33.771 82.1626 36.7993 82.1626H63.2038C66.2335 82.1626 68.6944 84.6247 68.6944 87.6484Z" fill="#E2E5E7"/>
<path d="M51.5094 17.5222C51.0084 17.2292 50.4348 17.0829 49.8656 17.0829C49.5784 17.0829 49.2923 17.1188 49.0124 17.1937C48.1685 17.4214 47.4555 17.9702 47.016 18.7288L43.0163 25.6497C42.1086 27.2242 42.6421 29.2335 44.2214 30.145L47.2411 31.8859C47.2017 32.1576 47.1658 32.4262 47.1295 32.6969C47.7189 33.2276 48.253 33.8171 48.6542 34.5219L51.836 40.0273C52.8556 41.8006 53.1222 43.8588 52.5879 45.8534C52.2164 47.2015 51.5066 48.3984 50.5165 49.3508C50.9761 49.7924 51.36 50.3004 51.6952 50.8392L54.5087 49.2159C55.7693 50.175 57.1076 51.0284 58.5927 51.6498V55.042C58.5927 56.8559 60.0679 58.3275 61.8853 58.3275H69.8772C71.6909 58.3275 73.1659 56.8559 73.1659 55.042V51.6498C74.651 51.0284 75.9897 50.1748 77.2471 49.2159L80.2552 50.9487C80.7607 51.2397 81.3307 51.39 81.9031 51.39C82.1837 51.39 82.4637 51.3523 82.7466 51.2789C83.5869 51.0528 84.3134 50.5009 84.7471 49.7437L88.7426 42.8216C89.6514 41.2486 89.1141 39.2348 87.5374 38.3261L84.5194 36.5822C84.6194 35.8043 84.7632 35.0419 84.7632 34.2357C84.7632 33.4349 84.6194 32.6648 84.5194 31.8863L87.5374 30.1454C88.2996 29.7093 88.8468 28.9893 89.0679 28.1494C89.296 27.3045 89.1786 26.4071 88.7426 25.6501L84.7471 18.7312C84.1378 17.6759 83.0302 17.0833 81.8973 17.0833C81.3368 17.0833 80.7738 17.2249 80.2552 17.5243L77.2471 19.2569C75.9897 18.2964 74.644 17.4432 73.1659 16.8246V13.4356C73.1659 11.6185 71.6909 10.1431 69.8772 10.1431H61.8853C60.0679 10.1431 58.5927 11.6185 58.5927 13.4356V16.8244C57.1114 17.4428 55.7693 18.2962 54.5087 19.2567L51.5094 17.5222ZM65.8809 22.2981C72.463 22.2981 77.8163 27.6524 77.8163 34.2353C77.8163 40.8187 72.463 46.1743 65.8809 46.1743C59.2997 46.1743 53.9456 40.8185 53.9456 34.2353C53.9456 27.6524 59.2997 22.2981 65.8809 22.2981Z" fill="#39965F"/>
<path d="M35.0993 65.8664V63.1719C36.2785 62.6813 37.3404 62.0062 38.3439 61.2404L40.728 62.6132C41.1273 62.8477 41.5741 62.9683 42.0332 62.9683C42.2581 62.9683 42.483 62.9357 42.701 62.879C43.3688 62.6967 43.9451 62.2584 44.2866 61.6623L47.4688 56.1656C48.1884 54.9199 47.7576 53.3194 46.5075 52.6008L44.1139 51.2157C44.1859 50.5979 44.2962 49.9912 44.2962 49.3542C44.2962 48.7157 44.1859 48.1051 44.1139 47.4881L46.5075 46.1073C47.1071 45.7575 47.5428 45.1889 47.7288 44.5181C47.9085 43.8452 47.8068 43.1368 47.4688 42.5366L44.2866 37.0429C43.8087 36.2061 42.9291 35.7383 42.0269 35.7383C41.5802 35.7383 41.1374 35.8488 40.7282 36.0883L38.3441 37.464C37.3406 36.7002 36.2755 36.0229 35.0995 35.53V32.8433C35.0995 31.3989 33.9307 30.2295 32.4877 30.2295H26.1449C24.6987 30.2295 23.5327 31.3989 23.5327 32.8433V35.53C22.36 36.0229 21.2884 36.7002 20.2926 37.464L17.9057 36.0852C17.5077 35.8537 17.0618 35.7381 16.6091 35.7381C16.3814 35.7381 16.1503 35.7674 15.9252 35.8275C15.2574 36.0052 14.6914 36.44 14.3396 37.0391L11.1641 42.5364C10.4503 43.7863 10.874 45.3842 12.1213 46.1071L14.5181 47.4879C14.4467 48.1049 14.3354 48.7155 14.3354 49.354C14.3354 49.9908 14.4469 50.5977 14.5181 51.2133L12.1213 52.596C10.874 53.3154 10.4503 54.9161 11.1641 56.1652L14.3392 61.6619C14.691 62.258 15.2572 62.6963 15.9248 62.8786C16.1467 62.9353 16.3746 62.9679 16.5989 62.9679C17.0585 62.9679 17.5045 62.8473 17.9053 62.6128L20.2863 61.24C21.2882 62.0058 22.3596 62.6811 23.5325 63.1715V65.866C23.5325 67.3055 24.6985 68.4762 26.1447 68.4762H32.4875C33.9305 68.4768 35.0993 67.3059 35.0993 65.8664ZM22.1125 49.354C22.1125 45.3727 25.3401 42.1487 29.3096 42.1487C33.2959 42.1487 36.5231 45.3725 36.5231 49.354C36.5231 53.3285 33.2959 56.5525 29.3096 56.5525C25.3401 56.5523 22.1125 53.3285 22.1125 49.354Z" fill="#39965F"/>
</g>
<defs>
<clipPath id="clip0_1896_355">
<rect width="100" height="100" fill="white"/>
</clipPath>
</defs>
</svg>
